REM DIRINDEX 1\2\4\18,1\2\4\19,1\2\5\20,1\2\5\21,1\2\6\22,1\2\6\23,1\2\7\24,1\2\7\25,1\2\8\26,1\2\8\27,1\2\9\28,1\2\9\29,1\2\10\30,1\3\11\31,1\3\11\32,1\3\11\33,1\3\11\34,1\3\11\35,1\3\12\36,1\3\12\37,1\3\12\38,1\3\12\39,1\3\12\40,1\3\13\41,1\3\13\42,1\3\13\43,1\3\13\44,1\3\13\45,1\3\14\46,1\3\14\47,1\3\14\48,1\3\14\49,1\3\15\50,1\3\15\51,1\3\15\52,1\3\15\53,1\3\15\54,1\3\16\55,1\3\16\56,1\3\16\57,1\3\16\58,1\3\16\59,1\3\17\60,1\3\17\61
REM DIRNAME "folder01","folder02","folder03","folder04","folder05","folder06","folder07","folder08","folder09","folder10","folder11","folder12","folder13","folder14","folder15","folder16","folder17","folder18","folder19","folder20","folder21","folder22","folder23","folder24","folder25","folder26","folder27","folder28","folder29","folder30","folder31","folder32","folder33","folder34","folder35","folder36","folder37","folder38","folder39","folder40","folder41","folder42","folder43","folder44","folder45","folder46","folder47","folder48","folder49","folder50","folder51","folder52","folder53","folder54","folder55","folder56","folder57","folder58","folder59","folder60","folder61"
TITLE ""
FILE "TOEIC LR Kinnojyukugo_08.mp3" MP3
  TRACK 01 AUDIO
    TITLE "0:"
    INDEX 01 00:00:00
  TRACK 02 AUDIO
    TITLE "46:cjc160_3959"
    INDEX 01 00:00:12
  TRACK 03 AUDIO
    TITLE "0:"
    INDEX 01 00:01:12
  TRACK 04 AUDIO
    TITLE "47:cjc160_3960"
    INDEX 01 00:01:49
  TRACK 05 AUDIO
    TITLE "0:"
    INDEX 01 00:04:32
  TRACK 06 AUDIO
    TITLE "48:cjc160_3961"
    INDEX 01 00:04:75
  TRACK 07 AUDIO
    TITLE "0:"
    INDEX 01 00:06:38
  TRACK 08 AUDIO
    TITLE "49:cjc160_3962"
    INDEX 01 00:06:72
  TRACK 09 AUDIO
    TITLE "0:"
    INDEX 01 00:08:33
  TRACK 10 AUDIO
    TITLE "48:cjc160_3963"
    INDEX 01 00:08:69
  TRACK 11 AUDIO
    TITLE "0:"
    INDEX 01 00:10:48
  TRACK 12 AUDIO
    TITLE "49:cjc160_3964"
    INDEX 01 00:11:08
  TRACK 13 AUDIO
    TITLE "0:"
    INDEX 01 00:12:33
  TRACK 14 AUDIO
    TITLE "48:cjc160_3965"
    INDEX 01 00:12:72
  TRACK 15 AUDIO
    TITLE "0:"
    INDEX 01 00:14:57
  TRACK 16 AUDIO
    TITLE "49:cjc160_3966"
    INDEX 01 00:15:26
  TRACK 17 AUDIO
    TITLE "0:"
    INDEX 01 00:16:52
  TRACK 18 AUDIO
    TITLE "46:cjc160_3967"
    INDEX 01 00:17:56
  TRACK 19 AUDIO
    TITLE "0:"
    INDEX 01 00:18:63
  TRACK 20 AUDIO
    TITLE "47:cjc160_3968"
    INDEX 01 00:19:25
  TRACK 21 AUDIO
    TITLE "0:"
    INDEX 01 00:25:14
  TRACK 22 AUDIO
    TITLE "48:cjc160_3969"
    INDEX 01 00:25:53
  TRACK 23 AUDIO
    TITLE "0:"
    INDEX 01 00:27:21
  TRACK 24 AUDIO
    TITLE "49:cjc160_3970"
    INDEX 01 00:27:58
  TRACK 25 AUDIO
    TITLE "0:"
    INDEX 01 00:29:14
  TRACK 26 AUDIO
    TITLE "48:cjc160_3971"
    INDEX 01 00:29:51
  TRACK 27 AUDIO
    TITLE "0:"
    INDEX 01 00:31:21
  TRACK 28 AUDIO
    TITLE "49:cjc160_3972"
    INDEX 01 00:31:60
  TRACK 29 AUDIO
    TITLE "0:"
    INDEX 01 00:33:14
  TRACK 30 AUDIO
    TITLE "48:cjc160_3973"
    INDEX 01 00:33:45
  TRACK 31 AUDIO
    TITLE "0:"
    INDEX 01 00:35:36
  TRACK 32 AUDIO
    TITLE "49:cjc160_3974"
    INDEX 01 00:35:75
  TRACK 33 AUDIO
    TITLE "0:"
    INDEX 01 00:37:58
  TRACK 34 AUDIO
    TITLE "46:cjc160_3975"
    INDEX 01 00:38:60
  TRACK 35 AUDIO
    TITLE "0:"
    INDEX 01 00:39:71
  TRACK 36 AUDIO
    TITLE "47:cjc160_3976"
    INDEX 01 00:40:33
  TRACK 37 AUDIO
    TITLE "0:"
    INDEX 01 00:45:66
  TRACK 38 AUDIO
    TITLE "48:cjc160_3977"
    INDEX 01 00:46:36
  TRACK 39 AUDIO
    TITLE "0:"
    INDEX 01 00:47:75
  TRACK 40 AUDIO
    TITLE "49:cjc160_3978"
    INDEX 01 00:48:35
  TRACK 41 AUDIO
    TITLE "0:"
    INDEX 01 00:49:73
  TRACK 42 AUDIO
    TITLE "48:cjc160_3979"
    INDEX 01 00:50:32
  TRACK 43 AUDIO
    TITLE "0:"
    INDEX 01 00:52:03
  TRACK 44 AUDIO
    TITLE "49:cjc160_3980"
    INDEX 01 00:52:42
  TRACK 45 AUDIO
    TITLE "0:"
    INDEX 01 00:54:35
  TRACK 46 AUDIO
    TITLE "48:cjc160_3981"
    INDEX 01 00:54:73
  TRACK 47 AUDIO
    TITLE "0:"
    INDEX 01 00:56:48
  TRACK 48 AUDIO
    TITLE "49:cjc160_3982"
    INDEX 01 00:57:12
  TRACK 49 AUDIO
    TITLE "0:"
    INDEX 01 00:58:33
  TRACK 50 AUDIO
    TITLE "46:cjc160_3983"
    INDEX 01 00:59:37
  TRACK 51 AUDIO
    TITLE "0:"
    INDEX 01 01:00:42
  TRACK 52 AUDIO
    TITLE "47:cjc160_3984"
    INDEX 01 01:01:04
  TRACK 53 AUDIO
    TITLE "0:"
    INDEX 01 01:02:37
  TRACK 54 AUDIO
    TITLE "48:cjc160_3985"
    INDEX 01 01:03:01
  TRACK 55 AUDIO
    TITLE "0:"
    INDEX 01 01:04:61
  TRACK 56 AUDIO
    TITLE "49:cjc160_3986"
    INDEX 01 01:05:25
  TRACK 57 AUDIO
    TITLE "0:"
    INDEX 01 01:06:60
  TRACK 58 AUDIO
    TITLE "48:cjc160_3987"
    INDEX 01 01:07:20
  TRACK 59 AUDIO
    TITLE "0:"
    INDEX 01 01:09:04
  TRACK 60 AUDIO
    TITLE "49:cjc160_3988"
    INDEX 01 01:09:37
  TRACK 61 AUDIO
    TITLE "0:"
    INDEX 01 01:10:66
  TRACK 62 AUDIO
    TITLE "48:cjc160_3989"
    INDEX 01 01:11:28
  TRACK 63 AUDIO
    TITLE "0:"
    INDEX 01 01:13:19
  TRACK 64 AUDIO
    TITLE "49:cjc160_3990"
    INDEX 01 01:13:54
  TRACK 65 AUDIO
    TITLE "0:"
    INDEX 01 01:15:16
  TRACK 66 AUDIO
    TITLE "46:cjc160_3991"
    INDEX 01 01:16:15
  TRACK 67 AUDIO
    TITLE "0:"
    INDEX 01 01:17:15
  TRACK 68 AUDIO
    TITLE "47:cjc160_3992"
    INDEX 01 01:17:56
  TRACK 69 AUDIO
    TITLE "0:"
    INDEX 01 01:21:30
  TRACK 70 AUDIO
    TITLE "48:cjc160_3993"
    INDEX 01 01:21:70
  TRACK 71 AUDIO
    TITLE "0:"
    INDEX 01 01:23:41
  TRACK 72 AUDIO
    TITLE "49:cjc160_3994"
    INDEX 01 01:24:03
  TRACK 73 AUDIO
    TITLE "0:"
    INDEX 01 01:25:58
  TRACK 74 AUDIO
    TITLE "48:cjc160_3995"
    INDEX 01 01:26:18
  TRACK 75 AUDIO
    TITLE "0:"
    INDEX 01 01:27:54
  TRACK 76 AUDIO
    TITLE "49:cjc160_3996"
    INDEX 01 01:28:15
  TRACK 77 AUDIO
    TITLE "0:"
    INDEX 01 01:29:42
  TRACK 78 AUDIO
    TITLE "48:cjc160_3997"
    INDEX 01 01:30:04
  TRACK 79 AUDIO
    TITLE "0:"
    INDEX 01 01:31:58
  TRACK 80 AUDIO
    TITLE "49:cjc160_3998"
    INDEX 01 01:32:20
  TRACK 81 AUDIO
    TITLE "0:"
    INDEX 01 01:33:53
  TRACK 82 AUDIO
    TITLE "46:cjc160_3999"
    INDEX 01 01:34:54
  TRACK 83 AUDIO
    TITLE "0:"
    INDEX 01 01:35:52
  TRACK 84 AUDIO
    TITLE "47:cjc160_4000"
    INDEX 01 01:36:14
  TRACK 85 AUDIO
    TITLE "0:"
    INDEX 01 01:38:25
  TRACK 86 AUDIO
    TITLE "48:cjc160_4001"
    INDEX 01 01:38:66
  TRACK 87 AUDIO
    TITLE "0:"
    INDEX 01 01:40:28
  TRACK 88 AUDIO
    TITLE "49:cjc160_4002"
    INDEX 01 01:40:65
  TRACK 89 AUDIO
    TITLE "0:"
    INDEX 01 01:42:15
  TRACK 90 AUDIO
    TITLE "48:cjc160_4003"
    INDEX 01 01:42:50
  TRACK 91 AUDIO
    TITLE "0:"
    INDEX 01 01:44:10
  TRACK 92 AUDIO
    TITLE "49:cjc160_4004"
    INDEX 01 01:44:47
  TRACK 93 AUDIO
    TITLE "0:"
    INDEX 01 01:46:28
  TRACK 94 AUDIO
    TITLE "48:cjc160_4005"
    INDEX 01 01:46:67
  TRACK 95 AUDIO
    TITLE "0:"
    INDEX 01 01:49:05
  TRACK 96 AUDIO
    TITLE "49:cjc160_4006"
    INDEX 01 01:49:42
  TRACK 97 AUDIO
    TITLE "0:"
    INDEX 01 01:51:45
  TRACK 98 AUDIO
    TITLE "46:cjc160_4007"
    INDEX 01 01:52:45
  TRACK 99 AUDIO
    TITLE "0:"
    INDEX 01 01:53:56
  TRACK 100 AUDIO
    TITLE "47:cjc160_4008"
    INDEX 01 01:54:20
  TRACK 101 AUDIO
    TITLE "0:"
    INDEX 01 01:58:35
  TRACK 102 AUDIO
    TITLE "48:cjc160_4009"
    INDEX 01 01:58:73
  TRACK 103 AUDIO
    TITLE "0:"
    INDEX 01 02:00:36
  TRACK 104 AUDIO
    TITLE "49:cjc160_4010"
    INDEX 01 02:00:75
  TRACK 105 AUDIO
    TITLE "0:"
    INDEX 01 02:02:47
  TRACK 106 AUDIO
    TITLE "48:cjc160_4011"
    INDEX 01 02:03:11
  TRACK 107 AUDIO
    TITLE "0:"
    INDEX 01 02:05:28
  TRACK 108 AUDIO
    TITLE "49:cjc160_4012"
    INDEX 01 02:06:07
  TRACK 109 AUDIO
    TITLE "0:"
    INDEX 01 02:07:56
  TRACK 110 AUDIO
    TITLE "48:cjc160_4013"
    INDEX 01 02:08:18
  TRACK 111 AUDIO
    TITLE "0:"
    INDEX 01 02:10:03
  TRACK 112 AUDIO
    TITLE "49:cjc160_4014"
    INDEX 01 02:10:43
  TRACK 113 AUDIO
    TITLE "0:"
    INDEX 01 02:12:08
  TRACK 114 AUDIO
    TITLE "46:cjc160_4015"
    INDEX 01 02:13:10
  TRACK 115 AUDIO
    TITLE "0:"
    INDEX 01 02:14:23
  TRACK 116 AUDIO
    TITLE "47:cjc160_4016"
    INDEX 01 02:14:60
  TRACK 117 AUDIO
    TITLE "0:"
    INDEX 01 02:17:29
  TRACK 118 AUDIO
    TITLE "48:cjc160_4017"
    INDEX 01 02:17:68
  TRACK 119 AUDIO
    TITLE "0:"
    INDEX 01 02:19:34
  TRACK 120 AUDIO
    TITLE "49:cjc160_4018"
    INDEX 01 02:19:73
  TRACK 121 AUDIO
    TITLE "0:"
    INDEX 01 02:21:50
  TRACK 122 AUDIO
    TITLE "48:cjc160_4019"
    INDEX 01 02:22:08
  TRACK 123 AUDIO
    TITLE "0:"
    INDEX 01 02:23:39
  TRACK 124 AUDIO
    TITLE "49:cjc160_4020"
    INDEX 01 02:24:01
  TRACK 125 AUDIO
    TITLE "0:"
    INDEX 01 02:25:44
  TRACK 126 AUDIO
    TITLE "48:cjc160_4021"
    INDEX 01 02:26:04
  TRACK 127 AUDIO
    TITLE "0:"
    INDEX 01 02:27:47
  TRACK 128 AUDIO
    TITLE "49:cjc160_4022"
    INDEX 01 02:28:09
  TRACK 129 AUDIO
    TITLE "0:"
    INDEX 01 02:29:57
  TRACK 130 AUDIO
    TITLE "46:cjc160_4023"
    INDEX 01 02:30:57
  TRACK 131 AUDIO
    TITLE "0:"
    INDEX 01 02:31:70
  TRACK 132 AUDIO
    TITLE "47:cjc160_4024"
    INDEX 01 02:32:32
  TRACK 133 AUDIO
    TITLE "0:"
    INDEX 01 02:38:23
  TRACK 134 AUDIO
    TITLE "48:cjc160_4025"
    INDEX 01 02:38:60
  TRACK 135 AUDIO
    TITLE "0:"
    INDEX 01 02:40:36
  TRACK 136 AUDIO
    TITLE "49:cjc160_4026"
    INDEX 01 02:40:75
  TRACK 137 AUDIO
    TITLE "0:"
    INDEX 01 02:42:54
  TRACK 138 AUDIO
    TITLE "48:cjc160_4027"
    INDEX 01 02:43:15
  TRACK 139 AUDIO
    TITLE "0:"
    INDEX 01 02:45:11
  TRACK 140 AUDIO
    TITLE "49:cjc160_4028"
    INDEX 01 02:45:51
  TRACK 141 AUDIO
    TITLE "0:"
    INDEX 01 02:47:18
  TRACK 142 AUDIO
    TITLE "48:cjc160_4029"
    INDEX 01 02:47:57
  TRACK 143 AUDIO
    TITLE "0:"
    INDEX 01 02:49:50
  TRACK 144 AUDIO
    TITLE "49:cjc160_4030"
    INDEX 01 02:50:15
  TRACK 145 AUDIO
    TITLE "0:"
    INDEX 01 02:51:63
  TRACK 146 AUDIO
    TITLE "46:cjc160_4031"
    INDEX 01 02:52:64
  TRACK 147 AUDIO
    TITLE "0:"
    INDEX 01 02:54:01
  TRACK 148 AUDIO
    TITLE "47:cjc160_4032"
    INDEX 01 02:54:38
  TRACK 149 AUDIO
    TITLE "0:"
    INDEX 01 02:55:39
  TRACK 150 AUDIO
    TITLE "48:cjc160_4033"
    INDEX 01 02:56:03
  TRACK 151 AUDIO
    TITLE "0:"
    INDEX 01 02:57:46
  TRACK 152 AUDIO
    TITLE "49:cjc160_4034"
    INDEX 01 02:58:08
  TRACK 153 AUDIO
    TITLE "0:"
    INDEX 01 02:59:49
  TRACK 154 AUDIO
    TITLE "48:cjc160_4035"
    INDEX 01 03:00:09
  TRACK 155 AUDIO
    TITLE "0:"
    INDEX 01 03:01:52
  TRACK 156 AUDIO
    TITLE "49:cjc160_4036"
    INDEX 01 03:02:14
  TRACK 157 AUDIO
    TITLE "0:"
    INDEX 01 03:03:66
  TRACK 158 AUDIO
    TITLE "48:cjc160_4037"
    INDEX 01 03:04:26
  TRACK 159 AUDIO
    TITLE "0:"
    INDEX 01 03:05:73
  TRACK 160 AUDIO
    TITLE "49:cjc160_4038"
    INDEX 01 03:06:35
  TRACK 161 AUDIO
    TITLE "0:"
    INDEX 01 03:08:01
  TRACK 162 AUDIO
    TITLE "46:cjc160_4039"
    INDEX 01 03:08:75
  TRACK 163 AUDIO
    TITLE "0:"
    INDEX 01 03:10:04
  TRACK 164 AUDIO
    TITLE "47:cjc160_4040"
    INDEX 01 03:10:43
  TRACK 165 AUDIO
    TITLE "0:"
    INDEX 01 03:16:73
  TRACK 166 AUDIO
    TITLE "48:cjc160_4041"
    INDEX 01 03:17:37
  TRACK 167 AUDIO
    TITLE "0:"
    INDEX 01 03:19:22
  TRACK 168 AUDIO
    TITLE "49:cjc160_4042"
    INDEX 01 03:19:59
  TRACK 169 AUDIO
    TITLE "0:"
    INDEX 01 03:21:23
  TRACK 170 AUDIO
    TITLE "48:cjc160_4043"
    INDEX 01 03:21:62
  TRACK 171 AUDIO
    TITLE "0:"
    INDEX 01 03:23:59
  TRACK 172 AUDIO
    TITLE "49:cjc160_4044"
    INDEX 01 03:24:23
  TRACK 173 AUDIO
    TITLE "0:"
    INDEX 01 03:25:56
  TRACK 174 AUDIO
    TITLE "48:cjc160_4045"
    INDEX 01 03:26:20
  TRACK 175 AUDIO
    TITLE "0:"
    INDEX 01 03:28:25
  TRACK 176 AUDIO
    TITLE "49:cjc160_4046"
    INDEX 01 03:28:60
  TRACK 177 AUDIO
    TITLE "0:"
    INDEX 01 03:30:12
  TRACK 178 AUDIO
    TITLE "46:cjc160_4047"
    INDEX 01 03:31:14
  TRACK 179 AUDIO
    TITLE "0:"
    INDEX 01 03:32:17
  TRACK 180 AUDIO
    TITLE "47:cjc160_4048"
    INDEX 01 03:32:58
  TRACK 181 AUDIO
    TITLE "0:"
    INDEX 01 03:39:72
  TRACK 182 AUDIO
    TITLE "48:cjc160_4049"
    INDEX 01 03:40:36
  TRACK 183 AUDIO
    TITLE "0:"
    INDEX 01 03:42:54
  TRACK 184 AUDIO
    TITLE "49:cjc160_4050"
    INDEX 01 03:43:15
  TRACK 185 AUDIO
    TITLE "0:"
    INDEX 01 03:44:75
  TRACK 186 AUDIO
    TITLE "48:cjc160_4051"
    INDEX 01 03:45:39
  TRACK 187 AUDIO
    TITLE "0:"
    INDEX 01 03:47:11
  TRACK 188 AUDIO
    TITLE "49:cjc160_4052"
    INDEX 01 03:47:46
  TRACK 189 AUDIO
    TITLE "0:"
    INDEX 01 03:49:10
  TRACK 190 AUDIO
    TITLE "48:cjc160_4053"
    INDEX 01 03:49:51
  TRACK 191 AUDIO
    TITLE "0:"
    INDEX 01 03:51:24
  TRACK 192 AUDIO
    TITLE "49:cjc160_4054"
    INDEX 01 03:51:63
  TRACK 193 AUDIO
    TITLE "0:"
    INDEX 01 03:53:23
  TRACK 194 AUDIO
    TITLE "46:cjc160_4055"
    INDEX 01 03:54:22
  TRACK 195 AUDIO
    TITLE "0:"
    INDEX 01 03:55:24
  TRACK 196 AUDIO
    TITLE "47:cjc160_4056"
    INDEX 01 03:55:59
  TRACK 197 AUDIO
    TITLE "0:"
    INDEX 01 03:58:42
  TRACK 198 AUDIO
    TITLE "48:cjc160_4057"
    INDEX 01 03:59:06
  TRACK 199 AUDIO
    TITLE "0:"
    INDEX 01 04:00:68
  TRACK 200 AUDIO
    TITLE "49:cjc160_4058"
    INDEX 01 04:01:30
  TRACK 201 AUDIO
    TITLE "0:"
    INDEX 01 04:02:71
  TRACK 202 AUDIO
    TITLE "48:cjc160_4059"
    INDEX 01 04:03:35
  TRACK 203 AUDIO
    TITLE "0:"
    INDEX 01 04:05:24
  TRACK 204 AUDIO
    TITLE "49:cjc160_4060"
    INDEX 01 04:05:59
  TRACK 205 AUDIO
    TITLE "0:"
    INDEX 01 04:07:29
  TRACK 206 AUDIO
    TITLE "48:cjc160_4061"
    INDEX 01 04:07:68
  TRACK 207 AUDIO
    TITLE "0:"
    INDEX 01 04:09:40
  TRACK 208 AUDIO
    TITLE "49:cjc160_4062"
    INDEX 01 04:10:02
  TRACK 209 AUDIO
    TITLE "0:"
    INDEX 01 04:11:35
  TRACK 210 AUDIO
    TITLE "46:cjc160_4063"
    INDEX 01 04:12:36
  TRACK 211 AUDIO
    TITLE "0:"
    INDEX 01 04:13:43
  TRACK 212 AUDIO
    TITLE "47:cjc160_4064"
    INDEX 01 04:14:07
  TRACK 213 AUDIO
    TITLE "0:"
    INDEX 01 04:18:11
  TRACK 214 AUDIO
    TITLE "48:cjc160_4065"
    INDEX 01 04:18:50
  TRACK 215 AUDIO
    TITLE "0:"
    INDEX 01 04:20:26
  TRACK 216 AUDIO
    TITLE "49:cjc160_4066"
    INDEX 01 04:20:65
  TRACK 217 AUDIO
    TITLE "0:"
    INDEX 01 04:22:25
  TRACK 218 AUDIO
    TITLE "48:cjc160_4067"
    INDEX 01 04:22:64
  TRACK 219 AUDIO
    TITLE "0:"
    INDEX 01 04:24:27
  TRACK 220 AUDIO
    TITLE "49:cjc160_4068"
    INDEX 01 04:24:67
  TRACK 221 AUDIO
    TITLE "0:"
    INDEX 01 04:26:36
  TRACK 222 AUDIO
    TITLE "48:cjc160_4069"
    INDEX 01 04:26:73
  TRACK 223 AUDIO
    TITLE "0:"
    INDEX 01 04:28:47
  TRACK 224 AUDIO
    TITLE "49:cjc160_4070"
    INDEX 01 04:29:11
  TRACK 225 AUDIO
    TITLE "0:"
    INDEX 01 04:30:57
  TRACK 226 AUDIO
    TITLE "46:cjc160_4071"
    INDEX 01 04:31:57
  TRACK 227 AUDIO
    TITLE "0:"
    INDEX 01 04:32:72
  TRACK 228 AUDIO
    TITLE "47:cjc160_4072"
    INDEX 01 04:33:34
  TRACK 229 AUDIO
    TITLE "0:"
    INDEX 01 04:34:65
  TRACK 230 AUDIO
    TITLE "48:cjc160_4073"
    INDEX 01 04:35:27
  TRACK 231 AUDIO
    TITLE "0:"
    INDEX 01 04:37:12
  TRACK 232 AUDIO
    TITLE "49:cjc160_4074"
    INDEX 01 04:37:52
  TRACK 233 AUDIO
    TITLE "0:"
    INDEX 01 04:39:23
  TRACK 234 AUDIO
    TITLE "48:cjc160_4075"
    INDEX 01 04:39:60
  TRACK 235 AUDIO
    TITLE "0:"
    INDEX 01 04:41:47
  TRACK 236 AUDIO
    TITLE "49:cjc160_4076"
    INDEX 01 04:42:10
  TRACK 237 AUDIO
    TITLE "0:"
    INDEX 01 04:43:54
  TRACK 238 AUDIO
    TITLE "48:cjc160_4077"
    INDEX 01 04:44:18
  TRACK 239 AUDIO
    TITLE "0:"
    INDEX 01 04:46:04
  TRACK 240 AUDIO
    TITLE "49:cjc160_4078"
    INDEX 01 04:46:43
  TRACK 241 AUDIO
    TITLE "0:"
    INDEX 01 04:48:53
  TRACK 242 AUDIO
    TITLE "46:cjc160_4079"
    INDEX 01 04:49:53
  TRACK 243 AUDIO
    TITLE "0:"
    INDEX 01 04:50:68
  TRACK 244 AUDIO
    TITLE "47:cjc160_4080"
    INDEX 01 04:51:30
  TRACK 245 AUDIO
    TITLE "0:"
    INDEX 01 04:54:09
  TRACK 246 AUDIO
    TITLE "48:cjc160_4081"
    INDEX 01 04:54:48
  TRACK 247 AUDIO
    TITLE "0:"
    INDEX 01 04:56:31
  TRACK 248 AUDIO
    TITLE "49:cjc160_4082"
    INDEX 01 04:56:65
  TRACK 249 AUDIO
    TITLE "0:"
    INDEX 01 04:58:30
  TRACK 250 AUDIO
    TITLE "48:cjc160_4083"
    INDEX 01 04:58:69
  TRACK 251 AUDIO
    TITLE "0:"
    INDEX 01 05:00:59
  TRACK 252 AUDIO
    TITLE "49:cjc160_4084"
    INDEX 01 05:01:21
  TRACK 253 AUDIO
    TITLE "0:"
    INDEX 01 05:02:65
  TRACK 254 AUDIO
    TITLE "48:cjc160_4085"
    INDEX 01 05:03:28
  TRACK 255 AUDIO
    TITLE "0:"
    INDEX 01 05:05:36
  TRACK 256 AUDIO
    TITLE "49:cjc160_4086"
    INDEX 01 05:05:73
  TRACK 257 AUDIO
    TITLE "0:"
    INDEX 01 05:08:13
  TRACK 258 AUDIO
    TITLE "46:cjc160_4087"
    INDEX 01 05:09:18
  TRACK 259 AUDIO
    TITLE "0:"
    INDEX 01 05:10:26
  TRACK 260 AUDIO
    TITLE "47:cjc160_4088"
    INDEX 01 05:10:63
  TRACK 261 AUDIO
    TITLE "0:"
    INDEX 01 05:15:19
  TRACK 262 AUDIO
    TITLE "48:cjc160_4089"
    INDEX 01 05:15:54
  TRACK 263 AUDIO
    TITLE "0:"
    INDEX 01 05:17:37
  TRACK 264 AUDIO
    TITLE "49:cjc160_4090"
    INDEX 01 05:17:73
  TRACK 265 AUDIO
    TITLE "0:"
    INDEX 01 05:19:34
  TRACK 266 AUDIO
    TITLE "48:cjc160_4091"
    INDEX 01 05:19:72
  TRACK 267 AUDIO
    TITLE "0:"
    INDEX 01 05:21:70
  TRACK 268 AUDIO
    TITLE "49:cjc160_4092"
    INDEX 01 05:22:33
  TRACK 269 AUDIO
    TITLE "0:"
    INDEX 01 05:23:73
  TRACK 270 AUDIO
    TITLE "48:cjc160_4093"
    INDEX 01 05:24:51
  TRACK 271 AUDIO
    TITLE "0:"
    INDEX 01 05:26:40
  TRACK 272 AUDIO
    TITLE "49:cjc160_4094"
    INDEX 01 05:27:03
  TRACK 273 AUDIO
    TITLE "0:"
    INDEX 01 05:28:51
  TRACK 274 AUDIO
    TITLE "46:cjc160_4095"
    INDEX 01 05:29:52
  TRACK 275 AUDIO
    TITLE "0:"
    INDEX 01 05:30:62
  TRACK 276 AUDIO
    TITLE "47:cjc160_4096"
    INDEX 01 05:31:26
  TRACK 277 AUDIO
    TITLE "0:"
    INDEX 01 05:36:27
  TRACK 278 AUDIO
    TITLE "48:cjc160_4097"
    INDEX 01 05:36:62
  TRACK 279 AUDIO
    TITLE "0:"
    INDEX 01 05:38:40
  TRACK 280 AUDIO
    TITLE "49:cjc160_4098"
    INDEX 01 05:39:02
  TRACK 281 AUDIO
    TITLE "0:"
    INDEX 01 05:40:46
  TRACK 282 AUDIO
    TITLE "48:cjc160_4099"
    INDEX 01 05:41:07
  TRACK 283 AUDIO
    TITLE "0:"
    INDEX 01 05:43:13
  TRACK 284 AUDIO
    TITLE "49:cjc160_4100"
    INDEX 01 05:43:52
  TRACK 285 AUDIO
    TITLE "0:"
    INDEX 01 05:45:28
  TRACK 286 AUDIO
    TITLE "48:cjc160_4101"
    INDEX 01 05:45:65
  TRACK 287 AUDIO
    TITLE "0:"
    INDEX 01 05:47:62
  TRACK 288 AUDIO
    TITLE "49:cjc160_4102"
    INDEX 01 05:48:24
  TRACK 289 AUDIO
    TITLE "0:"
    INDEX 01 05:49:67
  TRACK 290 AUDIO
    TITLE "46:cjc160_4103"
    INDEX 01 05:50:68
  TRACK 291 AUDIO
    TITLE "0:"
    INDEX 01 05:51:68
  TRACK 292 AUDIO
    TITLE "47:cjc160_4104"
    INDEX 01 05:52:30
  TRACK 293 AUDIO
    TITLE "0:"
    INDEX 01 05:56:63
  TRACK 294 AUDIO
    TITLE "48:cjc160_4105"
    INDEX 01 05:57:27
  TRACK 295 AUDIO
    TITLE "0:"
    INDEX 01 05:59:12
  TRACK 296 AUDIO
    TITLE "49:cjc160_4106"
    INDEX 01 05:59:50
  TRACK 297 AUDIO
    TITLE "0:"
    INDEX 01 06:01:17
  TRACK 298 AUDIO
    TITLE "48:cjc160_4107"
    INDEX 01 06:01:56
  TRACK 299 AUDIO
    TITLE "0:"
    INDEX 01 06:03:43
  TRACK 300 AUDIO
    TITLE "49:cjc160_4108"
    INDEX 01 06:04:08
  TRACK 301 AUDIO
    TITLE "0:"
    INDEX 01 06:05:40
  TRACK 302 AUDIO
    TITLE "48:cjc160_4109"
    INDEX 01 06:06:03
  TRACK 303 AUDIO
    TITLE "0:"
    INDEX 01 06:07:55
  TRACK 304 AUDIO
    TITLE "49:cjc160_4110"
    INDEX 01 06:08:19
  TRACK 305 AUDIO
    TITLE "0:"
    INDEX 01 06:09:70
  TRACK 306 AUDIO
    TITLE "46:cjc160_4111"
    INDEX 01 06:10:69
  TRACK 307 AUDIO
    TITLE "0:"
    INDEX 01 06:11:72
  TRACK 308 AUDIO
    TITLE "47:cjc160_4112"
    INDEX 01 06:12:37
  TRACK 309 AUDIO
    TITLE "0:"
    INDEX 01 06:19:35
  TRACK 310 AUDIO
    TITLE "48:cjc160_4113"
    INDEX 01 06:19:74
  TRACK 311 AUDIO
    TITLE "0:"
    INDEX 01 06:22:11
  TRACK 312 AUDIO
    TITLE "49:cjc160_4114"
    INDEX 01 06:22:55
  TRACK 313 AUDIO
    TITLE "0:"
    INDEX 01 06:24:44
  TRACK 314 AUDIO
    TITLE "48:cjc160_4115"
    INDEX 01 06:25:06
  TRACK 315 AUDIO
    TITLE "0:"
    INDEX 01 06:27:46
  TRACK 316 AUDIO
    TITLE "49:cjc160_4116"
    INDEX 01 06:28:10
  TRACK 317 AUDIO
    TITLE "0:"
    INDEX 01 06:30:32
  TRACK 318 AUDIO
    TITLE "48:cjc160_4117"
    INDEX 01 06:30:70
  TRACK 319 AUDIO
    TITLE "0:"
    INDEX 01 06:32:39
  TRACK 320 AUDIO
    TITLE "49:cjc160_4118"
    INDEX 01 06:33:01
  TRACK 321 AUDIO
    TITLE "0:"
    INDEX 01 06:34:52
  TRACK 322 AUDIO
    TITLE "46:cjc160_4119"
    INDEX 01 06:35:53
  TRACK 323 AUDIO
    TITLE "0:"
    INDEX 01 06:36:53
  TRACK 324 AUDIO
    TITLE "47:cjc160_4120"
    INDEX 01 06:37:15
  TRACK 325 AUDIO
    TITLE "0:"
    INDEX 01 06:42:30
  TRACK 326 AUDIO
    TITLE "48:cjc160_4121"
    INDEX 01 06:42:67
  TRACK 327 AUDIO
    TITLE "0:"
    INDEX 01 06:44:29
  TRACK 328 AUDIO
    TITLE "49:cjc160_4122"
    INDEX 01 06:44:66
  TRACK 329 AUDIO
    TITLE "0:"
    INDEX 01 06:46:06
  TRACK 330 AUDIO
    TITLE "48:cjc160_4123"
    INDEX 01 06:46:45
  TRACK 331 AUDIO
    TITLE "0:"
    INDEX 01 06:47:72
  TRACK 332 AUDIO
    TITLE "49:cjc160_4124"
    INDEX 01 06:48:34
  TRACK 333 AUDIO
    TITLE "0:"
    INDEX 01 06:50:08
  TRACK 334 AUDIO
    TITLE "48:cjc160_4125"
    INDEX 01 06:50:43
  TRACK 335 AUDIO
    TITLE "0:"
    INDEX 01 06:51:68
  TRACK 336 AUDIO
    TITLE "49:cjc160_4126"
    INDEX 01 06:52:30
  TRACK 337 AUDIO
    TITLE "0:"
    INDEX 01 06:53:71
  TRACK 338 AUDIO
    TITLE "46:cjc160_4127"
    INDEX 01 06:55:01
  TRACK 339 AUDIO
    TITLE "0:"
    INDEX 01 06:56:22
  TRACK 340 AUDIO
    TITLE "47:cjc160_4128"
    INDEX 01 06:56:63
  TRACK 341 AUDIO
    TITLE "0:"
    INDEX 01 06:58:09
  TRACK 342 AUDIO
    TITLE "48:cjc160_4129"
    INDEX 01 06:58:52
  TRACK 343 AUDIO
    TITLE "0:"
    INDEX 01 07:00:20
  TRACK 344 AUDIO
    TITLE "49:cjc160_4130"
    INDEX 01 07:00:57
  TRACK 345 AUDIO
    TITLE "0:"
    INDEX 01 07:02:36
  TRACK 346 AUDIO
    TITLE "48:cjc160_4131"
    INDEX 01 07:03:01
  TRACK 347 AUDIO
    TITLE "0:"
    INDEX 01 07:04:57
  TRACK 348 AUDIO
    TITLE "49:cjc160_4132"
    INDEX 01 07:05:21
  TRACK 349 AUDIO
    TITLE "0:"
    INDEX 01 07:06:64
  TRACK 350 AUDIO
    TITLE "48:cjc160_4133"
    INDEX 01 07:07:28
  TRACK 351 AUDIO
    TITLE "0:"
    INDEX 01 07:08:70
  TRACK 352 AUDIO
    TITLE "49:cjc160_4134"
    INDEX 01 07:09:33
  TRACK 353 AUDIO
    TITLE "0:"
    INDEX 01 07:11:14
  TRACK 354 AUDIO
    TITLE "46:cjc160_4135"
    INDEX 01 07:12:15
  TRACK 355 AUDIO
    TITLE "0:"
    INDEX 01 07:13:19
  TRACK 356 AUDIO
    TITLE "47:cjc160_4136"
    INDEX 01 07:13:56
  TRACK 357 AUDIO
    TITLE "0:"
    INDEX 01 07:15:10
  TRACK 358 AUDIO
    TITLE "48:cjc160_4137"
    INDEX 01 07:15:49
  TRACK 359 AUDIO
    TITLE "0:"
    INDEX 01 07:17:30
  TRACK 360 AUDIO
    TITLE "49:cjc160_4138"
    INDEX 01 07:17:67
  TRACK 361 AUDIO
    TITLE "0:"
    INDEX 01 07:19:21
  TRACK 362 AUDIO
    TITLE "48:cjc160_4139"
    INDEX 01 07:19:58
  TRACK 363 AUDIO
    TITLE "0:"
    INDEX 01 07:21:38
  TRACK 364 AUDIO
    TITLE "49:cjc160_4140"
    INDEX 01 07:21:75
  TRACK 365 AUDIO
    TITLE "0:"
    INDEX 01 07:23:31
  TRACK 366 AUDIO
    TITLE "48:cjc160_4141"
    INDEX 01 07:23:66
  TRACK 367 AUDIO
    TITLE "0:"
    INDEX 01 07:25:57
  TRACK 368 AUDIO
    TITLE "49:cjc160_4142"
    INDEX 01 07:26:21
  TRACK 369 AUDIO
    TITLE "0:"
    INDEX 01 07:28:01
  TRACK 370 AUDIO
    TITLE "46:cjc160_4143"
    INDEX 01 07:28:75
  TRACK 371 AUDIO
    TITLE "0:"
    INDEX 01 07:30:15
  TRACK 372 AUDIO
    TITLE "47:cjc160_4144"
    INDEX 01 07:30:52
  TRACK 373 AUDIO
    TITLE "0:"
    INDEX 01 07:35:44
  TRACK 374 AUDIO
    TITLE "48:cjc160_4145"
    INDEX 01 07:36:08
  TRACK 375 AUDIO
    TITLE "0:"
    INDEX 01 07:38:28
  TRACK 376 AUDIO
    TITLE "49:cjc160_4146"
    INDEX 01 07:38:66
  TRACK 377 AUDIO
    TITLE "0:"
    INDEX 01 07:40:70
  TRACK 378 AUDIO
    TITLE "48:cjc160_4147"
    INDEX 01 07:41:34
  TRACK 379 AUDIO
    TITLE "0:"
    INDEX 01 07:43:57
  TRACK 380 AUDIO
    TITLE "49:cjc160_4148"
    INDEX 01 07:44:21
  TRACK 381 AUDIO
    TITLE "0:"
    INDEX 01 07:46:32
  TRACK 382 AUDIO
    TITLE "48:cjc160_4149"
    INDEX 01 07:46:71
  TRACK 383 AUDIO
    TITLE "0:"
    INDEX 01 07:48:60
  TRACK 384 AUDIO
    TITLE "49:cjc160_4150"
    INDEX 01 07:49:24
  TRACK 385 AUDIO
    TITLE "0:"
    INDEX 01 07:51:04
  TRACK 386 AUDIO
    TITLE "46:cjc160_4151"
    INDEX 01 07:52:03
  TRACK 387 AUDIO
    TITLE "0:"
    INDEX 01 07:53:20
  TRACK 388 AUDIO
    TITLE "47:cjc160_4152"
    INDEX 01 07:53:57
  TRACK 389 AUDIO
    TITLE "0:"
    INDEX 01 07:55:03
  TRACK 390 AUDIO
    TITLE "48:cjc160_4153"
    INDEX 01 07:55:40
  TRACK 391 AUDIO
    TITLE "0:"
    INDEX 01 07:58:41
  TRACK 392 AUDIO
    TITLE "49:cjc160_4154"
    INDEX 01 07:59:01
  TRACK 393 AUDIO
    TITLE "0:"
    INDEX 01 08:02:03
  TRACK 394 AUDIO
    TITLE "48:cjc160_4155"
    INDEX 01 08:02:41
  TRACK 395 AUDIO
    TITLE "0:"
    INDEX 01 08:05:13
  TRACK 396 AUDIO
    TITLE "49:cjc160_4156"
    INDEX 01 08:05:51
  TRACK 397 AUDIO
    TITLE "0:"
    INDEX 01 08:08:24
  TRACK 398 AUDIO
    TITLE "48:cjc160_4157"
    INDEX 01 08:08:69
  TRACK 399 AUDIO
    TITLE "0:"
    INDEX 01 08:12:06
  TRACK 400 AUDIO
    TITLE "49:cjc160_4158"
    INDEX 01 08:12:45
  TRACK 401 AUDIO
    TITLE "0:"
    INDEX 01 08:15:39
  TRACK 402 AUDIO
    TITLE "46:cjc160_4159"
    INDEX 01 08:16:41
  TRACK 403 AUDIO
    TITLE "0:"
    INDEX 01 08:17:52
  TRACK 404 AUDIO
    TITLE "47:cjc160_4160"
    INDEX 01 08:18:14
  TRACK 405 AUDIO
    TITLE "0:"
    INDEX 01 08:22:31
  TRACK 406 AUDIO
    TITLE "48:cjc160_4161"
    INDEX 01 08:22:71
  TRACK 407 AUDIO
    TITLE "0:"
    INDEX 01 08:24:42
  TRACK 408 AUDIO
    TITLE "49:cjc160_4162"
    INDEX 01 08:25:04
  TRACK 409 AUDIO
    TITLE "0:"
    INDEX 01 08:26:35
  TRACK 410 AUDIO
    TITLE "48:cjc160_4163"
    INDEX 01 08:26:72
  TRACK 411 AUDIO
    TITLE "0:"
    INDEX 01 08:28:69
  TRACK 412 AUDIO
    TITLE "49:cjc160_4164"
    INDEX 01 08:29:39
  TRACK 413 AUDIO
    TITLE "0:"
    INDEX 01 08:31:44
  TRACK 414 AUDIO
    TITLE "48:cjc160_4165"
    INDEX 01 08:32:06
  TRACK 415 AUDIO
    TITLE "0:"
    INDEX 01 08:33:72
  TRACK 416 AUDIO
    TITLE "49:cjc160_4166"
    INDEX 01 08:34:44
  TRACK 417 AUDIO
    TITLE "0:"
    INDEX 01 08:36:28
  TRACK 418 AUDIO
    TITLE "46:cjc160_4167"
    INDEX 01 08:37:27
  TRACK 419 AUDIO
    TITLE "0:"
    INDEX 01 08:38:36
  TRACK 420 AUDIO
    TITLE "47:cjc160_4168"
    INDEX 01 08:39:01
  TRACK 421 AUDIO
    TITLE "0:"
    INDEX 01 08:44:53
  TRACK 422 AUDIO
    TITLE "48:cjc160_4169"
    INDEX 01 08:45:15
  TRACK 423 AUDIO
    TITLE "0:"
    INDEX 01 08:46:73
  TRACK 424 AUDIO
    TITLE "49:cjc160_4170"
    INDEX 01 08:47:35
  TRACK 425 AUDIO
    TITLE "0:"
    INDEX 01 08:48:68
  TRACK 426 AUDIO
    TITLE "48:cjc160_4171"
    INDEX 01 08:49:30
  TRACK 427 AUDIO
    TITLE "0:"
    INDEX 01 08:51:16
  TRACK 428 AUDIO
    TITLE "49:cjc160_4172"
    INDEX 01 08:51:53
  TRACK 429 AUDIO
    TITLE "0:"
    INDEX 01 08:53:42
  TRACK 430 AUDIO
    TITLE "48:cjc160_4173"
    INDEX 01 08:54:02
  TRACK 431 AUDIO
    TITLE "0:"
    INDEX 01 08:55:70
  TRACK 432 AUDIO
    TITLE "49:cjc160_4174"
    INDEX 01 08:56:32
  TRACK 433 AUDIO
    TITLE "0:"
    INDEX 01 08:58:02
  TRACK 434 AUDIO
    TITLE "46:cjc160_4175"
    INDEX 01 08:59:03
  TRACK 435 AUDIO
    TITLE "0:"
    INDEX 01 09:00:18
  TRACK 436 AUDIO
    TITLE "47:cjc160_4176"
    INDEX 01 09:00:54
  TRACK 437 AUDIO
    TITLE "0:"
    INDEX 01 09:01:73
  TRACK 438 AUDIO
    TITLE "48:cjc160_4177"
    INDEX 01 09:02:39
  TRACK 439 AUDIO
    TITLE "0:"
    INDEX 01 09:04:14
  TRACK 440 AUDIO
    TITLE "49:cjc160_4178"
    INDEX 01 09:04:53
  TRACK 441 AUDIO
    TITLE "0:"
    INDEX 01 09:06:29
  TRACK 442 AUDIO
    TITLE "48:cjc160_4179"
    INDEX 01 09:07:07
  TRACK 443 AUDIO
    TITLE "0:"
    INDEX 01 09:08:59
  TRACK 444 AUDIO
    TITLE "49:cjc160_4180"
    INDEX 01 09:09:23
  TRACK 445 AUDIO
    TITLE "0:"
    INDEX 01 09:10:58
  TRACK 446 AUDIO
    TITLE "48:cjc160_4181"
    INDEX 01 09:11:22
  TRACK 447 AUDIO
    TITLE "0:"
    INDEX 01 09:12:73
  TRACK 448 AUDIO
    TITLE "49:cjc160_4182"
    INDEX 01 09:13:35
  TRACK 449 AUDIO
    TITLE "0:"
    INDEX 01 09:15:14
  TRACK 450 AUDIO
    TITLE "46:cjc160_4183"
    INDEX 01 09:16:17
  TRACK 451 AUDIO
    TITLE "0:"
    INDEX 01 09:17:27
  TRACK 452 AUDIO
    TITLE "47:cjc160_4184"
    INDEX 01 09:18:03
  TRACK 453 AUDIO
    TITLE "0:"
    INDEX 01 09:21:11
  TRACK 454 AUDIO
    TITLE "48:cjc160_4185"
    INDEX 01 09:21:54
  TRACK 455 AUDIO
    TITLE "0:"
    INDEX 01 09:23:49
  TRACK 456 AUDIO
    TITLE "49:cjc160_4186"
    INDEX 01 09:24:11
  TRACK 457 AUDIO
    TITLE "0:"
    INDEX 01 09:25:69
  TRACK 458 AUDIO
    TITLE "48:cjc160_4187"
    INDEX 01 09:26:31
  TRACK 459 AUDIO
    TITLE "0:"
    INDEX 01 09:28:26
  TRACK 460 AUDIO
    TITLE "49:cjc160_4188"
    INDEX 01 09:28:66
  TRACK 461 AUDIO
    TITLE "0:"
    INDEX 01 09:30:37
  TRACK 462 AUDIO
    TITLE "48:cjc160_4189"
    INDEX 01 09:31:03
  TRACK 463 AUDIO
    TITLE "0:"
    INDEX 01 09:32:71
  TRACK 464 AUDIO
    TITLE "49:cjc160_4190"
    INDEX 01 09:33:34
  TRACK 465 AUDIO
    TITLE "0:"
    INDEX 01 09:34:70
  TRACK 466 AUDIO
    TITLE "46:cjc160_4191"
    INDEX 01 09:36:10
  TRACK 467 AUDIO
    TITLE "0:"
    INDEX 01 09:37:16
  TRACK 468 AUDIO
    TITLE "47:cjc160_4192"
    INDEX 01 09:37:53
  TRACK 469 AUDIO
    TITLE "0:"
    INDEX 01 09:44:25
  TRACK 470 AUDIO
    TITLE "48:cjc160_4193"
    INDEX 01 09:44:63
  TRACK 471 AUDIO
    TITLE "0:"
    INDEX 01 09:46:42
  TRACK 472 AUDIO
    TITLE "49:cjc160_4194"
    INDEX 01 09:47:02
  TRACK 473 AUDIO
    TITLE "0:"
    INDEX 01 09:48:29
  TRACK 474 AUDIO
    TITLE "48:cjc160_4195"
    INDEX 01 09:48:70
  TRACK 475 AUDIO
    TITLE "0:"
    INDEX 01 09:50:54
  TRACK 476 AUDIO
    TITLE "49:cjc160_4196"
    INDEX 01 09:51:16
  TRACK 477 AUDIO
    TITLE "0:"
    INDEX 01 09:52:58
  TRACK 478 AUDIO
    TITLE "48:cjc160_4197"
    INDEX 01 09:53:21
  TRACK 479 AUDIO
    TITLE "0:"
    INDEX 01 09:55:10
  TRACK 480 AUDIO
    TITLE "49:cjc160_4198"
    INDEX 01 09:55:47
  TRACK 481 AUDIO
    TITLE "0:"
    INDEX 01 09:57:09
  TRACK 482 AUDIO
    TITLE "46:cjc160_4199"
    INDEX 01 09:58:12
  TRACK 483 AUDIO
    TITLE "0:"
    INDEX 01 09:59:19
  TRACK 484 AUDIO
    TITLE "47:cjc160_4200"
    INDEX 01 09:59:58
  TRACK 485 AUDIO
    TITLE "0:"
    INDEX 01 10:03:48
  TRACK 486 AUDIO
    TITLE "48:cjc160_4201"
    INDEX 01 10:04:11
  TRACK 487 AUDIO
    TITLE "0:"
    INDEX 01 10:05:53
  TRACK 488 AUDIO
    TITLE "49:cjc160_4202"
    INDEX 01 10:06:17
  TRACK 489 AUDIO
    TITLE "0:"
    INDEX 01 10:07:40
  TRACK 490 AUDIO
    TITLE "48:cjc160_4203"
    INDEX 01 10:08:02
  TRACK 491 AUDIO
    TITLE "0:"
    INDEX 01 10:09:41
  TRACK 492 AUDIO
    TITLE "49:cjc160_4204"
    INDEX 01 10:10:05
  TRACK 493 AUDIO
    TITLE "0:"
    INDEX 01 10:11:48
  TRACK 494 AUDIO
    TITLE "48:cjc160_4205"
    INDEX 01 10:12:18
  TRACK 495 AUDIO
    TITLE "0:"
    INDEX 01 10:13:62
  TRACK 496 AUDIO
    TITLE "49:cjc160_4206"
    INDEX 01 10:14:25
  TRACK 497 AUDIO
    TITLE "0:"
    INDEX 01 10:15:63
  TRACK 498 AUDIO
    TITLE "46:cjc160_4207"
    INDEX 01 10:16:65
  TRACK 499 AUDIO
    TITLE "0:"
    INDEX 01 10:17:72
  TRACK 500 AUDIO
    TITLE "47:cjc160_4208"
    INDEX 01 10:18:42
  TRACK 501 AUDIO
    TITLE "0:"
    INDEX 01 10:21:33
  TRACK 502 AUDIO
    TITLE "48:cjc160_4209"
    INDEX 01 10:21:70
  TRACK 503 AUDIO
    TITLE "0:"
    INDEX 01 10:23:33
  TRACK 504 AUDIO
    TITLE "49:cjc160_4210"
    INDEX 01 10:23:71
  TRACK 505 AUDIO
    TITLE "0:"
    INDEX 01 10:25:34
  TRACK 506 AUDIO
    TITLE "48:cjc160_4211"
    INDEX 01 10:25:73
  TRACK 507 AUDIO
    TITLE "0:"
    INDEX 01 10:27:45
  TRACK 508 AUDIO
    TITLE "49:cjc160_4212"
    INDEX 01 10:28:07
  TRACK 509 AUDIO
    TITLE "0:"
    INDEX 01 10:29:54
  TRACK 510 AUDIO
    TITLE "48:cjc160_4213"
    INDEX 01 10:30:18
  TRACK 511 AUDIO
    TITLE "0:"
    INDEX 01 10:32:01
  TRACK 512 AUDIO
    TITLE "49:cjc160_4214"
    INDEX 01 10:32:38
  TRACK 513 AUDIO
    TITLE "0:"
    INDEX 01 10:34:04
  TRACK 514 AUDIO
    TITLE "46:cjc160_4215"
    INDEX 01 10:35:05
  TRACK 515 AUDIO
    TITLE "0:"
    INDEX 01 10:36:12
  TRACK 516 AUDIO
    TITLE "47:cjc160_4216"
    INDEX 01 10:36:58
  TRACK 517 AUDIO
    TITLE "0:"
    INDEX 01 10:39:62
  TRACK 518 AUDIO
    TITLE "48:cjc160_4217"
    INDEX 01 10:40:26
  TRACK 519 AUDIO
    TITLE "0:"
    INDEX 01 10:42:13
  TRACK 520 AUDIO
    TITLE "49:cjc160_4218"
    INDEX 01 10:42:50
  TRACK 521 AUDIO
    TITLE "0:"
    INDEX 01 10:44:18
  TRACK 522 AUDIO
    TITLE "48:cjc160_4219"
    INDEX 01 10:44:55
  TRACK 523 AUDIO
    TITLE "0:"
    INDEX 01 10:46:54
  TRACK 524 AUDIO
    TITLE "49:cjc160_4220"
    INDEX 01 10:47:18
  TRACK 525 AUDIO
    TITLE "0:"
    INDEX 01 10:48:67
  TRACK 526 AUDIO
    TITLE "48:cjc160_4221"
    INDEX 01 10:49:31
  TRACK 527 AUDIO
    TITLE "0:"
    INDEX 01 10:51:22
  TRACK 528 AUDIO
    TITLE "49:cjc160_4222"
    INDEX 01 10:51:59
  TRACK 529 AUDIO
    TITLE "0:"
    INDEX 01 10:53:42
  TRACK 530 AUDIO
    TITLE "46:cjc160_4223"
    INDEX 01 10:54:42
  TRACK 531 AUDIO
    TITLE "0:"
    INDEX 01 10:55:51
  TRACK 532 AUDIO
    TITLE "47:cjc160_4224"
    INDEX 01 10:56:13
  TRACK 533 AUDIO
    TITLE "0:"
    INDEX 01 11:00:31
  TRACK 534 AUDIO
    TITLE "48:cjc160_4225"
    INDEX 01 11:00:70
  TRACK 535 AUDIO
    TITLE "0:"
    INDEX 01 11:03:29
  TRACK 536 AUDIO
    TITLE "49:cjc160_4226"
    INDEX 01 11:03:64
  TRACK 537 AUDIO
    TITLE "0:"
    INDEX 01 11:05:49
  TRACK 538 AUDIO
    TITLE "48:cjc160_4227"
    INDEX 01 11:06:12
  TRACK 539 AUDIO
    TITLE "0:"
    INDEX 01 11:08:20
  TRACK 540 AUDIO
    TITLE "49:cjc160_4228"
    INDEX 01 11:08:58
  TRACK 541 AUDIO
    TITLE "0:"
    INDEX 01 11:10:51
  TRACK 542 AUDIO
    TITLE "48:cjc160_4229"
    INDEX 01 11:11:13
  TRACK 543 AUDIO
    TITLE "0:"
    INDEX 01 11:13:33
  TRACK 544 AUDIO
    TITLE "49:cjc160_4230"
    INDEX 01 11:13:72
  TRACK 545 AUDIO
    TITLE "0:"
    INDEX 01 11:15:60
  TRACK 546 AUDIO
    TITLE "46:cjc160_4231"
    INDEX 01 11:16:61
  TRACK 547 AUDIO
    TITLE "0:"
    INDEX 01 11:17:68
  TRACK 548 AUDIO
    TITLE "47:cjc160_4232"
    INDEX 01 11:18:32
  TRACK 549 AUDIO
    TITLE "0:"
    INDEX 01 11:22:26
  TRACK 550 AUDIO
    TITLE "48:cjc160_4233"
    INDEX 01 11:22:62
  TRACK 551 AUDIO
    TITLE "0:"
    INDEX 01 11:24:62
  TRACK 552 AUDIO
    TITLE "49:cjc160_4234"
    INDEX 01 11:25:25
  TRACK 553 AUDIO
    TITLE "0:"
    INDEX 01 11:26:65
  TRACK 554 AUDIO
    TITLE "48:cjc160_4235"
    INDEX 01 11:27:28
  TRACK 555 AUDIO
    TITLE "0:"
    INDEX 01 11:29:28
  TRACK 556 AUDIO
    TITLE "49:cjc160_4236"
    INDEX 01 11:29:68
  TRACK 557 AUDIO
    TITLE "0:"
    INDEX 01 11:31:31
  TRACK 558 AUDIO
    TITLE "48:cjc160_4237"
    INDEX 01 11:31:70
  TRACK 559 AUDIO
    TITLE "0:"
    INDEX 01 11:33:48
  TRACK 560 AUDIO
    TITLE "49:cjc160_4238"
    INDEX 01 11:34:10
  TRACK 561 AUDIO
    TITLE "0:"
    INDEX 01 11:35:52
  TRACK 562 AUDIO
    TITLE "46:cjc160_4239"
    INDEX 01 11:36:52
  TRACK 563 AUDIO
    TITLE "0:"
    INDEX 01 11:37:73
  TRACK 564 AUDIO
    TITLE "47:cjc160_4240"
    INDEX 01 11:38:33
  TRACK 565 AUDIO
    TITLE "0:"
    INDEX 01 11:39:68
  TRACK 566 AUDIO
    TITLE "48:cjc160_4241"
    INDEX 01 11:40:30
  TRACK 567 AUDIO
    TITLE "0:"
    INDEX 01 11:42:17
  TRACK 568 AUDIO
    TITLE "49:cjc160_4242"
    INDEX 01 11:42:56
  TRACK 569 AUDIO
    TITLE "0:"
    INDEX 01 11:44:46
  TRACK 570 AUDIO
    TITLE "48:cjc160_4243"
    INDEX 01 11:45:08
  TRACK 571 AUDIO
    TITLE "0:"
    INDEX 01 11:46:56
  TRACK 572 AUDIO
    TITLE "49:cjc160_4244"
    INDEX 01 11:47:20
  TRACK 573 AUDIO
    TITLE "0:"
    INDEX 01 11:48:67
  TRACK 574 AUDIO
    TITLE "48:cjc160_4245"
    INDEX 01 11:49:33
  TRACK 575 AUDIO
    TITLE "0:"
    INDEX 01 11:51:34
  TRACK 576 AUDIO
    TITLE "49:cjc160_4246"
    INDEX 01 11:51:75
  TRACK 577 AUDIO
    TITLE "0:"
    INDEX 01 11:53:37
  TRACK 578 AUDIO
    TITLE "46:cjc160_4247"
    INDEX 01 11:54:38
  TRACK 579 AUDIO
    TITLE "0:"
    INDEX 01 11:55:57
  TRACK 580 AUDIO
    TITLE "47:cjc160_4248"
    INDEX 01 11:56:19
  TRACK 581 AUDIO
    TITLE "0:"
    INDEX 01 11:57:48
  TRACK 582 AUDIO
    TITLE "48:cjc160_4249"
    INDEX 01 11:58:12
  TRACK 583 AUDIO
    TITLE "0:"
    INDEX 01 11:59:73
  TRACK 584 AUDIO
    TITLE "49:cjc160_4250"
    INDEX 01 12:00:35
  TRACK 585 AUDIO
    TITLE "0:"
    INDEX 01 12:02:20
  TRACK 586 AUDIO
    TITLE "48:cjc160_4251"
    INDEX 01 12:02:57
  TRACK 587 AUDIO
    TITLE "0:"
    INDEX 01 12:04:46
  TRACK 588 AUDIO
    TITLE "49:cjc160_4252"
    INDEX 01 12:05:10
  TRACK 589 AUDIO
    TITLE "0:"
    INDEX 01 12:06:59
  TRACK 590 AUDIO
    TITLE "48:cjc160_4253"
    INDEX 01 12:07:19
  TRACK 591 AUDIO
    TITLE "0:"
    INDEX 01 12:08:68
  TRACK 592 AUDIO
    TITLE "49:cjc160_4254"
    INDEX 01 12:09:30
  TRACK 593 AUDIO
    TITLE "0:"
    INDEX 01 12:11:03
  TRACK 594 AUDIO
    TITLE "46:cjc160_4255"
    INDEX 01 12:12:05
  TRACK 595 AUDIO
    TITLE "0:"
    INDEX 01 12:13:06
  TRACK 596 AUDIO
    TITLE "47:cjc160_4256"
    INDEX 01 12:13:43
  TRACK 597 AUDIO
    TITLE "0:"
    INDEX 01 12:16:14
  TRACK 598 AUDIO
    TITLE "48:cjc160_4257"
    INDEX 01 12:16:53
  TRACK 599 AUDIO
    TITLE "0:"
    INDEX 01 12:17:74
  TRACK 600 AUDIO
    TITLE "49:cjc160_4258"
    INDEX 01 12:18:39
  TRACK 601 AUDIO
    TITLE "0:"
    INDEX 01 12:20:04
  TRACK 602 AUDIO
    TITLE "48:cjc160_4259"
    INDEX 01 12:20:43
  TRACK 603 AUDIO
    TITLE "0:"
    INDEX 01 12:22:62
  TRACK 604 AUDIO
    TITLE "49:cjc160_4260"
    INDEX 01 12:23:26
  TRACK 605 AUDIO
    TITLE "0:"
    INDEX 01 12:25:01
  TRACK 606 AUDIO
    TITLE "48:cjc160_4261"
    INDEX 01 12:25:41
  TRACK 607 AUDIO
    TITLE "0:"
    INDEX 01 12:27:04
  TRACK 608 AUDIO
    TITLE "49:cjc160_4262"
    INDEX 01 12:27:41
  TRACK 609 AUDIO
    TITLE "0:"
    INDEX 01 12:29:07
  TRACK 610 AUDIO
    TITLE "46:cjc160_4263"
    INDEX 01 12:30:07
  TRACK 611 AUDIO
    TITLE "0:"
    INDEX 01 12:31:41
  TRACK 612 AUDIO
    TITLE "47:cjc160_4264"
    INDEX 01 12:32:05
  TRACK 613 AUDIO
    TITLE "0:"
    INDEX 01 12:34:65
  TRACK 614 AUDIO
    TITLE "48:cjc160_4265"
    INDEX 01 12:35:29
  TRACK 615 AUDIO
    TITLE "0:"
    INDEX 01 12:37:20
  TRACK 616 AUDIO
    TITLE "49:cjc160_4266"
    INDEX 01 12:37:57
  TRACK 617 AUDIO
    TITLE "0:"
    INDEX 01 12:39:62
  TRACK 618 AUDIO
    TITLE "48:cjc160_4267"
    INDEX 01 12:40:25
  TRACK 619 AUDIO
    TITLE "0:"
    INDEX 01 12:42:08
  TRACK 620 AUDIO
    TITLE "49:cjc160_4268"
    INDEX 01 12:42:45
  TRACK 621 AUDIO
    TITLE "0:"
    INDEX 01 12:44:56
  TRACK 622 AUDIO
    TITLE "48:cjc160_4269"
    INDEX 01 12:45:22
  TRACK 623 AUDIO
    TITLE "0:"
    INDEX 01 12:47:13
  TRACK 624 AUDIO
    TITLE "49:cjc160_4270"
    INDEX 01 12:47:50
  TRACK 625 AUDIO
    TITLE "0:"
    INDEX 01 12:49:59
  TRACK 626 AUDIO
    TITLE "46:cjc160_4271"
    INDEX 01 12:50:60
  TRACK 627 AUDIO
    TITLE "0:"
    INDEX 01 12:51:75
  TRACK 628 AUDIO
    TITLE "47:cjc160_4272"
    INDEX 01 12:52:37
  TRACK 629 AUDIO
    TITLE "0:"
    INDEX 01 12:55:04
  TRACK 630 AUDIO
    TITLE "48:cjc160_4273"
    INDEX 01 12:55:44
  TRACK 631 AUDIO
    TITLE "0:"
    INDEX 01 12:57:03
  TRACK 632 AUDIO
    TITLE "49:cjc160_4274"
    INDEX 01 12:57:43
  TRACK 633 AUDIO
    TITLE "0:"
    INDEX 01 12:59:12
  TRACK 634 AUDIO
    TITLE "48:cjc160_4275"
    INDEX 01 12:59:51
  TRACK 635 AUDIO
    TITLE "0:"
    INDEX 01 13:01:13
  TRACK 636 AUDIO
    TITLE "49:cjc160_4276"
    INDEX 01 13:01:50
  TRACK 637 AUDIO
    TITLE "0:"
    INDEX 01 13:03:29
  TRACK 638 AUDIO
    TITLE "48:cjc160_4277"
    INDEX 01 13:03:67
  TRACK 639 AUDIO
    TITLE "0:"
    INDEX 01 13:05:30
  TRACK 640 AUDIO
    TITLE "49:cjc160_4278"
    INDEX 01 13:05:68
  TRACK 641 AUDIO
    TITLE "0:"
    INDEX 01 13:07:61
  TRACK 642 AUDIO
    TITLE "46:cjc160_4279"
    INDEX 01 13:08:60
  TRACK 643 AUDIO
    TITLE "0:"
    INDEX 01 13:09:69
  TRACK 644 AUDIO
    TITLE "47:cjc160_4280"
    INDEX 01 13:10:33
  TRACK 645 AUDIO
    TITLE "0:"
    INDEX 01 13:13:49
  TRACK 646 AUDIO
    TITLE "48:cjc160_4281"
    INDEX 01 13:14:18
  TRACK 647 AUDIO
    TITLE "0:"
    INDEX 01 13:16:18
  TRACK 648 AUDIO
    TITLE "49:cjc160_4282"
    INDEX 01 13:16:56
  TRACK 649 AUDIO
    TITLE "0:"
    INDEX 01 13:18:25
  TRACK 650 AUDIO
    TITLE "48:cjc160_4283"
    INDEX 01 13:18:64
  TRACK 651 AUDIO
    TITLE "0:"
    INDEX 01 13:20:61
  TRACK 652 AUDIO
    TITLE "49:cjc160_4284"
    INDEX 01 13:21:21
  TRACK 653 AUDIO
    TITLE "0:"
    INDEX 01 13:23:05
  TRACK 654 AUDIO
    TITLE "48:cjc160_4285"
    INDEX 01 13:23:44
  TRACK 655 AUDIO
    TITLE "0:"
    INDEX 01 13:25:37
  TRACK 656 AUDIO
    TITLE "49:cjc160_4286"
    INDEX 01 13:26:01
  TRACK 657 AUDIO
    TITLE "0:"
    INDEX 01 13:27:44
  TRACK 658 AUDIO
    TITLE "46:cjc160_4287"
    INDEX 01 13:28:45
  TRACK 659 AUDIO
    TITLE "0:"
    INDEX 01 13:29:64
  TRACK 660 AUDIO
    TITLE "47:cjc160_4288"
    INDEX 01 13:30:26
  TRACK 661 AUDIO
    TITLE "0:"
    INDEX 01 13:32:27
  TRACK 662 AUDIO
    TITLE "48:cjc160_4289"
    INDEX 01 13:32:66
  TRACK 663 AUDIO
    TITLE "0:"
    INDEX 01 13:35:12
  TRACK 664 AUDIO
    TITLE "49:cjc160_4290"
    INDEX 01 13:35:49
  TRACK 665 AUDIO
    TITLE "0:"
    INDEX 01 13:37:34
  TRACK 666 AUDIO
    TITLE "48:cjc160_4291"
    INDEX 01 13:38:02
  TRACK 667 AUDIO
    TITLE "0:"
    INDEX 01 13:40:17
  TRACK 668 AUDIO
    TITLE "49:cjc160_4292"
    INDEX 01 13:40:54
  TRACK 669 AUDIO
    TITLE "0:"
    INDEX 01 13:42:59
  TRACK 670 AUDIO
    TITLE "48:cjc160_4293"
    INDEX 01 13:43:21
  TRACK 671 AUDIO
    TITLE "0:"
    INDEX 01 13:45:47
  TRACK 672 AUDIO
    TITLE "49:cjc160_4294"
    INDEX 01 13:46:10
  TRACK 673 AUDIO
    TITLE "0:"
    INDEX 01 13:48:05
  TRACK 674 AUDIO
    TITLE "46:cjc160_4295"
    INDEX 01 13:49:02
  TRACK 675 AUDIO
    TITLE "0:"
    INDEX 01 13:50:07
  TRACK 676 AUDIO
    TITLE "47:cjc160_4296"
    INDEX 01 13:50:45
  TRACK 677 AUDIO
    TITLE "0:"
    INDEX 01 13:53:45
  TRACK 678 AUDIO
    TITLE "48:cjc160_4297"
    INDEX 01 13:54:13
  TRACK 679 AUDIO
    TITLE "0:"
    INDEX 01 13:55:69
  TRACK 680 AUDIO
    TITLE "49:cjc160_4298"
    INDEX 01 13:56:32
  TRACK 681 AUDIO
    TITLE "0:"
    INDEX 01 13:58:03
  TRACK 682 AUDIO
    TITLE "48:cjc160_4299"
    INDEX 01 13:58:42
  TRACK 683 AUDIO
    TITLE "0:"
    INDEX 01 14:00:27
  TRACK 684 AUDIO
    TITLE "49:cjc160_4300"
    INDEX 01 14:00:63
  TRACK 685 AUDIO
    TITLE "0:"
    INDEX 01 14:02:32
  TRACK 686 AUDIO
    TITLE "48:cjc160_4301"
    INDEX 01 14:02:66
  TRACK 687 AUDIO
    TITLE "0:"
    INDEX 01 14:04:59
  TRACK 688 AUDIO
    TITLE "49:cjc160_4302"
    INDEX 01 14:05:23
  TRACK 689 AUDIO
    TITLE "0:"
    INDEX 01 14:07:04
  TRACK 690 AUDIO
    TITLE "46:cjc160_4303"
    INDEX 01 14:08:05
  TRACK 691 AUDIO
    TITLE "0:"
    INDEX 01 14:09:09
  TRACK 692 AUDIO
    TITLE "47:cjc160_4304"
    INDEX 01 14:09:48
  TRACK 693 AUDIO
    TITLE "0:"
    INDEX 01 14:12:58
  TRACK 694 AUDIO
    TITLE "48:cjc160_4305"
    INDEX 01 14:13:20
  TRACK 695 AUDIO
    TITLE "0:"
    INDEX 01 14:15:37
  TRACK 696 AUDIO
    TITLE "49:cjc160_4306"
    INDEX 01 14:16:01
  TRACK 697 AUDIO
    TITLE "0:"
    INDEX 01 14:17:75
  TRACK 698 AUDIO
    TITLE "48:cjc160_4307"
    INDEX 01 14:18:37
  TRACK 699 AUDIO
    TITLE "0:"
    INDEX 01 14:20:20
  TRACK 700 AUDIO
    TITLE "49:cjc160_4308"
    INDEX 01 14:20:60
  TRACK 701 AUDIO
    TITLE "0:"
    INDEX 01 14:22:19
  TRACK 702 AUDIO
    TITLE "48:cjc160_4309"
    INDEX 01 14:22:58
  TRACK 703 AUDIO
    TITLE "0:"
    INDEX 01 14:24:49
  TRACK 704 AUDIO
    TITLE "49:cjc160_4310"
    INDEX 01 14:25:14
  TRACK 705 AUDIO
    TITLE "0:"
    INDEX 01 14:26:72
  TRACK 706 AUDIO
    TITLE "46:cjc160_4311"
    INDEX 01 14:27:73
  TRACK 707 AUDIO
    TITLE "0:"
    INDEX 01 14:29:06
  TRACK 708 AUDIO
    TITLE "47:cjc160_4312"
    INDEX 01 14:29:43
  TRACK 709 AUDIO
    TITLE "0:"
    INDEX 01 14:33:62
  TRACK 710 AUDIO
    TITLE "48:cjc160_4313"
    INDEX 01 14:34:22
  TRACK 711 AUDIO
    TITLE "0:"
    INDEX 01 14:36:06
  TRACK 712 AUDIO
    TITLE "49:cjc160_4314"
    INDEX 01 14:36:43
  TRACK 713 AUDIO
    TITLE "0:"
    INDEX 01 14:38:14
  TRACK 714 AUDIO
    TITLE "48:cjc160_4315"
    INDEX 01 14:38:50
  TRACK 715 AUDIO
    TITLE "0:"
    INDEX 01 14:40:01
  TRACK 716 AUDIO
    TITLE "49:cjc160_4316"
    INDEX 01 14:40:41
  TRACK 717 AUDIO
    TITLE "0:"
    INDEX 01 14:42:06
  TRACK 718 AUDIO
    TITLE "48:cjc160_4317"
    INDEX 01 14:42:38
  TRACK 719 AUDIO
    TITLE "0:"
    INDEX 01 14:44:21
  TRACK 720 AUDIO
    TITLE "49:cjc160_4318"
    INDEX 01 14:44:60
  TRACK 721 AUDIO
    TITLE "0:"
    INDEX 01 14:46:30
  TRACK 722 AUDIO
    TITLE "46:cjc160_4319"
    INDEX 01 14:47:27
  TRACK 723 AUDIO
    TITLE "0:"
    INDEX 01 14:48:46
  TRACK 724 AUDIO
    TITLE "47:cjc160_4320"
    INDEX 01 14:49:08
  TRACK 725 AUDIO
    TITLE "0:"
    INDEX 01 14:54:11
  TRACK 726 AUDIO
    TITLE "48:cjc160_4321"
    INDEX 01 14:54:53
  TRACK 727 AUDIO
    TITLE "0:"
    INDEX 01 14:56:28
  TRACK 728 AUDIO
    TITLE "49:cjc160_4322"
    INDEX 01 14:56:65
  TRACK 729 AUDIO
    TITLE "0:"
    INDEX 01 14:58:58
  TRACK 730 AUDIO
    TITLE "48:cjc160_4323"
    INDEX 01 14:59:22
  TRACK 731 AUDIO
    TITLE "0:"
    INDEX 01 15:00:69
  TRACK 732 AUDIO
    TITLE "49:cjc160_4324"
    INDEX 01 15:01:35
  TRACK 733 AUDIO
    TITLE "0:"
    INDEX 01 15:02:70
  TRACK 734 AUDIO
    TITLE "48:cjc160_4325"
    INDEX 01 15:03:34
  TRACK 735 AUDIO
    TITLE "0:"
    INDEX 01 15:05:09
  TRACK 736 AUDIO
    TITLE "49:cjc160_4326"
    INDEX 01 15:05:48
  TRACK 737 AUDIO
    TITLE "0:"
    INDEX 01 15:07:36
  TRACK 738 AUDIO
    TITLE "46:cjc160_4327"
    INDEX 01 15:08:35
  TRACK 739 AUDIO
    TITLE "0:"
    INDEX 01 15:09:60
  TRACK 740 AUDIO
    TITLE "47:cjc160_4328"
    INDEX 01 15:10:22
  TRACK 741 AUDIO
    TITLE "0:"
    INDEX 01 15:16:29
  TRACK 742 AUDIO
    TITLE "48:cjc160_4329"
    INDEX 01 15:16:68
  TRACK 743 AUDIO
    TITLE "0:"
    INDEX 01 15:18:61
  TRACK 744 AUDIO
    TITLE "49:cjc160_4330"
    INDEX 01 15:19:25
  TRACK 745 AUDIO
    TITLE "0:"
    INDEX 01 15:21:04
  TRACK 746 AUDIO
    TITLE "48:cjc160_4331"
    INDEX 01 15:21:44
  TRACK 747 AUDIO
    TITLE "0:"
    INDEX 01 15:23:64
  TRACK 748 AUDIO
    TITLE "49:cjc160_4332"
    INDEX 01 15:24:24
  TRACK 749 AUDIO
    TITLE "0:"
    INDEX 01 15:26:29
  TRACK 750 AUDIO
    TITLE "48:cjc160_4333"
    INDEX 01 15:26:64
  TRACK 751 AUDIO
    TITLE "0:"
    INDEX 01 15:28:49
  TRACK 752 AUDIO
    TITLE "49:cjc160_4334"
    INDEX 01 15:29:14
  TRACK 753 AUDIO
    TITLE "0:"
    INDEX 01 15:31:09
  TRACK 754 AUDIO
    TITLE "46:cjc160_4335"
    INDEX 01 15:32:08
  TRACK 755 AUDIO
    TITLE "0:"
    INDEX 01 15:33:25
  TRACK 756 AUDIO
    TITLE "47:cjc160_4336"
    INDEX 01 15:33:62
  TRACK 757 AUDIO
    TITLE "0:"
    INDEX 01 15:39:16
  TRACK 758 AUDIO
    TITLE "48:cjc160_4337"
    INDEX 01 15:39:55
  TRACK 759 AUDIO
    TITLE "0:"
    INDEX 01 15:41:52
  TRACK 760 AUDIO
    TITLE "49:cjc160_4338"
    INDEX 01 15:42:08
  TRACK 761 AUDIO
    TITLE "0:"
    INDEX 01 15:43:59
  TRACK 762 AUDIO
    TITLE "48:cjc160_4339"
    INDEX 01 15:44:21
  TRACK 763 AUDIO
    TITLE "0:"
    INDEX 01 15:45:48
  TRACK 764 AUDIO
    TITLE "49:cjc160_4340"
    INDEX 01 15:46:10
  TRACK 765 AUDIO
    TITLE "0:"
    INDEX 01 15:47:74
  TRACK 766 AUDIO
    TITLE "48:cjc160_4341"
    INDEX 01 15:48:37
  TRACK 767 AUDIO
    TITLE "0:"
    INDEX 01 15:50:55
  TRACK 768 AUDIO
    TITLE "49:cjc160_4342"
    INDEX 01 15:51:19
  TRACK 769 AUDIO
    TITLE "0:"
    INDEX 01 15:53:20
  TRACK 770 AUDIO
    TITLE "46:cjc160_4343"
    INDEX 01 15:54:19
  TRACK 771 AUDIO
    TITLE "0:"
    INDEX 01 15:55:42
  TRACK 772 AUDIO
    TITLE "47:cjc160_4344"
    INDEX 01 15:56:11
  TRACK 773 AUDIO
    TITLE "0:"
    INDEX 01 16:00:71
  TRACK 774 AUDIO
    TITLE "48:cjc160_4345"
    INDEX 01 16:01:35
  TRACK 775 AUDIO
    TITLE "0:"
    INDEX 01 16:03:20
  TRACK 776 AUDIO
    TITLE "49:cjc160_4346"
    INDEX 01 16:03:60
  TRACK 777 AUDIO
    TITLE "0:"
    INDEX 01 16:05:31
  TRACK 778 AUDIO
    TITLE "48:cjc160_4347"
    INDEX 01 16:05:72
  TRACK 779 AUDIO
    TITLE "0:"
    INDEX 01 16:07:50
  TRACK 780 AUDIO
    TITLE "49:cjc160_4348"
    INDEX 01 16:08:14
  TRACK 781 AUDIO
    TITLE "0:"
    INDEX 01 16:09:72
  TRACK 782 AUDIO
    TITLE "48:cjc160_4349"
    INDEX 01 16:10:38
  TRACK 783 AUDIO
    TITLE "0:"
    INDEX 01 16:12:41
  TRACK 784 AUDIO
    TITLE "49:cjc160_4350"
    INDEX 01 16:13:05
  TRACK 785 AUDIO
    TITLE "0:"
    INDEX 01 16:14:55
  TRACK 786 AUDIO
    TITLE "46:cjc160_4351"
    INDEX 01 16:15:57
  TRACK 787 AUDIO
    TITLE "0:"
    INDEX 01 16:17:03
  TRACK 788 AUDIO
    TITLE "47:cjc160_4352"
    INDEX 01 16:17:38
  TRACK 789 AUDIO
    TITLE "0:"
    INDEX 01 16:19:57
  TRACK 790 AUDIO
    TITLE "48:cjc160_4353"
    INDEX 01 16:20:17
  TRACK 791 AUDIO
    TITLE "0:"
    INDEX 01 16:21:36
  TRACK 792 AUDIO
    TITLE "49:cjc160_4354"
    INDEX 01 16:21:73
  TRACK 793 AUDIO
    TITLE "0:"
    INDEX 01 16:23:47
  TRACK 794 AUDIO
    TITLE "48:cjc160_4355"
    INDEX 01 16:24:05
  TRACK 795 AUDIO
    TITLE "0:"
    INDEX 01 16:25:38
  TRACK 796 AUDIO
    TITLE "49:cjc160_4356"
    INDEX 01 16:26:04
  TRACK 797 AUDIO
    TITLE "0:"
    INDEX 01 16:27:60
  TRACK 798 AUDIO
    TITLE "48:cjc160_4357"
    INDEX 01 16:28:22
  TRACK 799 AUDIO
    TITLE "0:"
    INDEX 01 16:29:75
  TRACK 800 AUDIO
    TITLE "49:cjc160_4358"
    INDEX 01 16:30:39
  TRACK 801 AUDIO
    TITLE "0:"
    INDEX 01 16:32:69
  TRACK 802 AUDIO
    TITLE "46:cjc160_4359"
    INDEX 01 16:33:70
  TRACK 803 AUDIO
    TITLE "0:"
    INDEX 01 16:35:13
  TRACK 804 AUDIO
    TITLE "47:cjc160_4360"
    INDEX 01 16:35:50
  TRACK 805 AUDIO
    TITLE "0:"
    INDEX 01 16:40:14
  TRACK 806 AUDIO
    TITLE "48:cjc160_4361"
    INDEX 01 16:40:51
  TRACK 807 AUDIO
    TITLE "0:"
    INDEX 01 16:42:34
  TRACK 808 AUDIO
    TITLE "49:cjc160_4362"
    INDEX 01 16:42:73
  TRACK 809 AUDIO
    TITLE "0:"
    INDEX 01 16:44:33
  TRACK 810 AUDIO
    TITLE "48:cjc160_4363"
    INDEX 01 16:44:72
  TRACK 811 AUDIO
    TITLE "0:"
    INDEX 01 16:46:59
  TRACK 812 AUDIO
    TITLE "49:cjc160_4364"
    INDEX 01 16:47:24
  TRACK 813 AUDIO
    TITLE "0:"
    INDEX 01 16:48:68
  TRACK 814 AUDIO
    TITLE "48:cjc160_4365"
    INDEX 01 16:49:32
  TRACK 815 AUDIO
    TITLE "0:"
    INDEX 01 16:51:10
  TRACK 816 AUDIO
    TITLE "49:cjc160_4366"
    INDEX 01 16:51:47
  TRACK 817 AUDIO
    TITLE "0:"
    INDEX 01 16:53:34
  TRACK 818 AUDIO
    TITLE "46:cjc160_4367"
    INDEX 01 16:54:35
  TRACK 819 AUDIO
    TITLE "0:"
    INDEX 01 16:55:54
  TRACK 820 AUDIO
    TITLE "47:cjc160_4368"
    INDEX 01 16:56:19
  TRACK 821 AUDIO
    TITLE "0:"
    INDEX 01 16:57:49
  TRACK 822 AUDIO
    TITLE "48:cjc160_4369"
    INDEX 01 16:58:14
  TRACK 823 AUDIO
    TITLE "0:"
    INDEX 01 17:00:05
  TRACK 824 AUDIO
    TITLE "49:cjc160_4370"
    INDEX 01 17:00:46
  TRACK 825 AUDIO
    TITLE "0:"
    INDEX 01 17:02:23
  TRACK 826 AUDIO
    TITLE "48:cjc160_4371"
    INDEX 01 17:02:64
  TRACK 827 AUDIO
    TITLE "0:"
    INDEX 01 17:04:46
  TRACK 828 AUDIO
    TITLE "49:cjc160_4372"
    INDEX 01 17:05:10
  TRACK 829 AUDIO
    TITLE "0:"
    INDEX 01 17:06:60
  TRACK 830 AUDIO
    TITLE "48:cjc160_4373"
    INDEX 01 17:07:28
  TRACK 831 AUDIO
    TITLE "0:"
    INDEX 01 17:09:09
  TRACK 832 AUDIO
    TITLE "49:cjc160_4374"
    INDEX 01 17:09:41
  TRACK 833 AUDIO
    TITLE "0:"
    INDEX 01 17:11:12
  TRACK 834 AUDIO
    TITLE "46:cjc160_4375"
    INDEX 01 17:12:12
  TRACK 835 AUDIO
    TITLE "0:"
    INDEX 01 17:13:17
  TRACK 836 AUDIO
    TITLE "47:cjc160_4376"
    INDEX 01 17:13:54
  TRACK 837 AUDIO
    TITLE "0:"
    INDEX 01 17:18:59
  TRACK 838 AUDIO
    TITLE "48:cjc160_4377"
    INDEX 01 17:19:24
  TRACK 839 AUDIO
    TITLE "0:"
    INDEX 01 17:21:21
  TRACK 840 AUDIO
    TITLE "49:cjc160_4378"
    INDEX 01 17:21:60
  TRACK 841 AUDIO
    TITLE "0:"
    INDEX 01 17:23:25
  TRACK 842 AUDIO
    TITLE "48:cjc160_4379"
    INDEX 01 17:23:63
  TRACK 843 AUDIO
    TITLE "0:"
    INDEX 01 17:25:42
  TRACK 844 AUDIO
    TITLE "49:cjc160_4380"
    INDEX 01 17:26:06
  TRACK 845 AUDIO
    TITLE "0:"
    INDEX 01 17:27:31
  TRACK 846 AUDIO
    TITLE "48:cjc160_4381"
    INDEX 01 17:27:68
  TRACK 847 AUDIO
    TITLE "0:"
    INDEX 01 17:30:08
  TRACK 848 AUDIO
    TITLE "49:cjc160_4382"
    INDEX 01 17:30:45
  TRACK 849 AUDIO
    TITLE "0:"
    INDEX 01 17:32:13
  TRACK 850 AUDIO
    TITLE "46:cjc160_4383"
    INDEX 01 17:33:10
  TRACK 851 AUDIO
    TITLE "0:"
    INDEX 01 17:34:23
  TRACK 852 AUDIO
    TITLE "47:cjc160_4384"
    INDEX 01 17:34:62
  TRACK 853 AUDIO
    TITLE "0:"
    INDEX 01 17:36:26
  TRACK 854 AUDIO
    TITLE "48:cjc160_4385"
    INDEX 01 17:36:63
  TRACK 855 AUDIO
    TITLE "0:"
    INDEX 01 17:38:54
  TRACK 856 AUDIO
    TITLE "49:cjc160_4386"
    INDEX 01 17:39:15
  TRACK 857 AUDIO
    TITLE "0:"
    INDEX 01 17:40:61
  TRACK 858 AUDIO
    TITLE "48:cjc160_4387"
    INDEX 01 17:41:29
  TRACK 859 AUDIO
    TITLE "0:"
    INDEX 01 17:43:20
  TRACK 860 AUDIO
    TITLE "49:cjc160_4388"
    INDEX 01 17:43:57
  TRACK 861 AUDIO
    TITLE "0:"
    INDEX 01 17:45:17
  TRACK 862 AUDIO
    TITLE "48:cjc160_4389"
    INDEX 01 17:45:54
  TRACK 863 AUDIO
    TITLE "0:"
    INDEX 01 17:47:43
  TRACK 864 AUDIO
    TITLE "49:cjc160_4390"
    INDEX 01 17:48:06
  TRACK 865 AUDIO
    TITLE "0:"
    INDEX 01 17:49:46
  TRACK 866 AUDIO
    TITLE "46:cjc160_4391"
    INDEX 01 17:50:48
  TRACK 867 AUDIO
    TITLE "0:"
    INDEX 01 17:51:57
  TRACK 868 AUDIO
    TITLE "47:cjc160_4392"
    INDEX 01 17:52:21
  TRACK 869 AUDIO
    TITLE "0:"
    INDEX 01 17:57:10
  TRACK 870 AUDIO
    TITLE "48:cjc160_4393"
    INDEX 01 17:57:50
  TRACK 871 AUDIO
    TITLE "0:"
    INDEX 01 17:59:54
  TRACK 872 AUDIO
    TITLE "49:cjc160_4394"
    INDEX 01 18:00:19
  TRACK 873 AUDIO
    TITLE "0:"
    INDEX 01 18:01:49
  TRACK 874 AUDIO
    TITLE "48:cjc160_4395"
    INDEX 01 18:02:12
  TRACK 875 AUDIO
    TITLE "0:"
    INDEX 01 18:04:09
  TRACK 876 AUDIO
    TITLE "49:cjc160_4396"
    INDEX 01 18:04:46
  TRACK 877 AUDIO
    TITLE "0:"
    INDEX 01 18:06:17
  TRACK 878 AUDIO
    TITLE "48:cjc160_4397"
    INDEX 01 18:06:58
  TRACK 879 AUDIO
    TITLE "0:"
    INDEX 01 18:08:75
  TRACK 880 AUDIO
    TITLE "49:cjc160_4398"
    INDEX 01 18:09:37
  TRACK 881 AUDIO
    TITLE "0:"
    INDEX 01 18:11:52
  TRACK 882 AUDIO
    TITLE "46:cjc160_4399"
    INDEX 01 18:12:53
  TRACK 883 AUDIO
    TITLE "0:"
    INDEX 01 18:13:60
  TRACK 884 AUDIO
    TITLE "47:cjc160_4400"
    INDEX 01 18:14:23
  TRACK 885 AUDIO
    TITLE "0:"
    INDEX 01 18:18:38
  TRACK 886 AUDIO
    TITLE "48:cjc160_4401"
    INDEX 01 18:18:75
  TRACK 887 AUDIO
    TITLE "0:"
    INDEX 01 18:20:72
  TRACK 888 AUDIO
    TITLE "49:cjc160_4402"
    INDEX 01 18:21:34
  TRACK 889 AUDIO
    TITLE "0:"
    INDEX 01 18:23:12
  TRACK 890 AUDIO
    TITLE "48:cjc160_4403"
    INDEX 01 18:23:51
  TRACK 891 AUDIO
    TITLE "0:"
    INDEX 01 18:25:21
  TRACK 892 AUDIO
    TITLE "49:cjc160_4404"
    INDEX 01 18:25:58
  TRACK 893 AUDIO
    TITLE "0:"
    INDEX 01 18:27:27
  TRACK 894 AUDIO
    TITLE "48:cjc160_4405"
    INDEX 01 18:27:64
  TRACK 895 AUDIO
    TITLE "0:"
    INDEX 01 18:29:63
  TRACK 896 AUDIO
    TITLE "49:cjc160_4406"
    INDEX 01 18:30:28
  TRACK 897 AUDIO
    TITLE "0:"
    INDEX 01 18:31:62
  TRACK 898 AUDIO
    TITLE "46:cjc160_4407"
    INDEX 01 18:32:75
  TRACK 899 AUDIO
    TITLE "0:"
    INDEX 01 18:34:02
  TRACK 900 AUDIO
    TITLE "47:cjc160_4408"
    INDEX 01 18:34:53
  TRACK 901 AUDIO
    TITLE "0:"
    INDEX 01 18:36:14
  TRACK 902 AUDIO
    TITLE "48:cjc160_4409"
    INDEX 01 18:36:52
  TRACK 903 AUDIO
    TITLE "0:"
    INDEX 01 18:38:37
  TRACK 904 AUDIO
    TITLE "49:cjc160_4410"
    INDEX 01 18:39:01
  TRACK 905 AUDIO
    TITLE "0:"
    INDEX 01 18:40:40
  TRACK 906 AUDIO
    TITLE "48:cjc160_4411"
    INDEX 01 18:41:02
  TRACK 907 AUDIO
    TITLE "0:"
    INDEX 01 18:43:01
  TRACK 908 AUDIO
    TITLE "49:cjc160_4412"
    INDEX 01 18:43:38
  TRACK 909 AUDIO
    TITLE "0:"
    INDEX 01 18:45:09
  TRACK 910 AUDIO
    TITLE "48:cjc160_4413"
    INDEX 01 18:45:47
  TRACK 911 AUDIO
    TITLE "0:"
    INDEX 01 18:47:52
  TRACK 912 AUDIO
    TITLE "49:cjc160_4414"
    INDEX 01 18:48:16
  TRACK 913 AUDIO
    TITLE "0:"
    INDEX 01 18:50:07
  TRACK 914 AUDIO
    TITLE "46:cjc160_4415"
    INDEX 01 18:51:08
  TRACK 915 AUDIO
    TITLE "0:"
    INDEX 01 18:52:23
  TRACK 916 AUDIO
    TITLE "47:cjc160_4416"
    INDEX 01 18:52:62
  TRACK 917 AUDIO
    TITLE "0:"
    INDEX 01 18:54:01
  TRACK 918 AUDIO
    TITLE "48:cjc160_4417"
    INDEX 01 18:54:38
  TRACK 919 AUDIO
    TITLE "0:"
    INDEX 01 18:55:75
  TRACK 920 AUDIO
    TITLE "49:cjc160_4418"
    INDEX 01 18:56:39
  TRACK 921 AUDIO
    TITLE "0:"
    INDEX 01 18:58:47
  TRACK 922 AUDIO
    TITLE "48:cjc160_4419"
    INDEX 01 18:59:10
  TRACK 923 AUDIO
    TITLE "0:"
    INDEX 01 19:00:46
  TRACK 924 AUDIO
    TITLE "49:cjc160_4420"
    INDEX 01 19:01:12
  TRACK 925 AUDIO
    TITLE "0:"
    INDEX 01 19:02:41
  TRACK 926 AUDIO
    TITLE "48:cjc160_4421"
    INDEX 01 19:03:05
  TRACK 927 AUDIO
    TITLE "0:"
    INDEX 01 19:04:52
  TRACK 928 AUDIO
    TITLE "49:cjc160_4422"
    INDEX 01 19:05:16
  TRACK 929 AUDIO
    TITLE "0:"
    INDEX 01 19:06:49
  TRACK 930 AUDIO
    TITLE "46:cjc160_4423"
    INDEX 01 19:07:48
  TRACK 931 AUDIO
    TITLE "0:"
    INDEX 01 19:08:63
  TRACK 932 AUDIO
    TITLE "47:cjc160_4424"
    INDEX 01 19:09:28
  TRACK 933 AUDIO
    TITLE "0:"
    INDEX 01 19:13:35
  TRACK 934 AUDIO
    TITLE "48:cjc160_4425"
    INDEX 01 19:13:74
  TRACK 935 AUDIO
    TITLE "0:"
    INDEX 01 19:15:73
  TRACK 936 AUDIO
    TITLE "49:cjc160_4426"
    INDEX 01 19:16:36
  TRACK 937 AUDIO
    TITLE "0:"
    INDEX 01 19:18:11
  TRACK 938 AUDIO
    TITLE "48:cjc160_4427"
    INDEX 01 19:18:48
  TRACK 939 AUDIO
    TITLE "0:"
    INDEX 01 19:20:22
  TRACK 940 AUDIO
    TITLE "49:cjc160_4428"
    INDEX 01 19:20:61
  TRACK 941 AUDIO
    TITLE "0:"
    INDEX 01 19:22:22
  TRACK 942 AUDIO
    TITLE "48:cjc160_4429"
    INDEX 01 19:22:60
  TRACK 943 AUDIO
    TITLE "0:"
    INDEX 01 19:24:37
  TRACK 944 AUDIO
    TITLE "49:cjc160_4430"
    INDEX 01 19:25:01
  TRACK 945 AUDIO
    TITLE "0:"
    INDEX 01 19:26:36
  TRACK 946 AUDIO
    TITLE "46:cjc160_4431"
    INDEX 01 19:27:39
  TRACK 947 AUDIO
    TITLE "0:"
    INDEX 01 19:28:45
  TRACK 948 AUDIO
    TITLE "47:cjc160_4432"
    INDEX 01 19:29:05
  TRACK 949 AUDIO
    TITLE "0:"
    INDEX 01 19:32:09
  TRACK 950 AUDIO
    TITLE "48:cjc160_4433"
    INDEX 01 19:32:46
  TRACK 951 AUDIO
    TITLE "0:"
    INDEX 01 19:34:20
  TRACK 952 AUDIO
    TITLE "49:cjc160_4434"
    INDEX 01 19:34:59
  TRACK 953 AUDIO
    TITLE "0:"
    INDEX 01 19:36:36
  TRACK 954 AUDIO
    TITLE "48:cjc160_4435"
    INDEX 01 19:36:73
  TRACK 955 AUDIO
    TITLE "0:"
    INDEX 01 19:38:61
  TRACK 956 AUDIO
    TITLE "49:cjc160_4436"
    INDEX 01 19:39:29
  TRACK 957 AUDIO
    TITLE "0:"
    INDEX 01 19:41:06
  TRACK 958 AUDIO
    TITLE "48:cjc160_4437"
    INDEX 01 19:41:45
  TRACK 959 AUDIO
    TITLE "0:"
    INDEX 01 19:43:34
  TRACK 960 AUDIO
    TITLE "49:cjc160_4438"
    INDEX 01 19:44:01
  TRACK 961 AUDIO
    TITLE "0:"
    INDEX 01 19:45:59
  TRACK 962 AUDIO
    TITLE "46:cjc160_4439"
    INDEX 01 19:46:58
  TRACK 963 AUDIO
    TITLE "0:"
    INDEX 01 19:47:71
  TRACK 964 AUDIO
    TITLE "47:cjc160_4440"
    INDEX 01 19:48:36
  TRACK 965 AUDIO
    TITLE "0:"
    INDEX 01 19:51:20
  TRACK 966 AUDIO
    TITLE "48:cjc160_4441"
    INDEX 01 19:51:57
  TRACK 967 AUDIO
    TITLE "0:"
    INDEX 01 19:53:31
  TRACK 968 AUDIO
    TITLE "49:cjc160_4442"
    INDEX 01 19:53:68
  TRACK 969 AUDIO
    TITLE "0:"
    INDEX 01 19:55:32
  TRACK 970 AUDIO
    TITLE "48:cjc160_4443"
    INDEX 01 19:55:69
  TRACK 971 AUDIO
    TITLE "0:"
    INDEX 01 19:57:58
  TRACK 972 AUDIO
    TITLE "49:cjc160_4444"
    INDEX 01 19:58:20
  TRACK 973 AUDIO
    TITLE "0:"
    INDEX 01 19:59:63
  TRACK 974 AUDIO
    TITLE "48:cjc160_4445"
    INDEX 01 20:00:25
  TRACK 975 AUDIO
    TITLE "0:"
    INDEX 01 20:02:02
  TRACK 976 AUDIO
    TITLE "49:cjc160_4446"
    INDEX 01 20:02:43
  TRACK 977 AUDIO
    TITLE "0:"
    INDEX 01 20:04:05
  TRACK 978 AUDIO
    TITLE "46:cjc160_4447"
    INDEX 01 20:05:05
  TRACK 979 AUDIO
    TITLE "0:"
    INDEX 01 20:06:12
  TRACK 980 AUDIO
    TITLE "47:cjc160_4448"
    INDEX 01 20:06:49
  TRACK 981 AUDIO
    TITLE "0:"
    INDEX 01 20:11:17
  TRACK 982 AUDIO
    TITLE "48:cjc160_4449"
    INDEX 01 20:11:58
  TRACK 983 AUDIO
    TITLE "0:"
    INDEX 01 20:14:02
  TRACK 984 AUDIO
    TITLE "49:cjc160_4450"
    INDEX 01 20:14:39
  TRACK 985 AUDIO
    TITLE "0:"
    INDEX 01 20:16:46
  TRACK 986 AUDIO
    TITLE "48:cjc160_4451"
    INDEX 01 20:17:10
  TRACK 987 AUDIO
    TITLE "0:"
    INDEX 01 20:19:26
  TRACK 988 AUDIO
    TITLE "49:cjc160_4452"
    INDEX 01 20:19:62
  TRACK 989 AUDIO
    TITLE "0:"
    INDEX 01 20:21:45
  TRACK 990 AUDIO
    TITLE "48:cjc160_4453"
    INDEX 01 20:22:07
  TRACK 991 AUDIO
    TITLE "0:"
    INDEX 01 20:23:73
  TRACK 992 AUDIO
    TITLE "49:cjc160_4454"
    INDEX 01 20:24:37
  TRACK 993 AUDIO
    TITLE "0:"
    INDEX 01 20:26:17
  TRACK 994 AUDIO
    TITLE "46:cjc160_4455"
    INDEX 01 20:27:18
  TRACK 995 AUDIO
    TITLE "0:"
    INDEX 01 20:28:23
  TRACK 996 AUDIO
    TITLE "47:cjc160_4456"
    INDEX 01 20:28:62
  TRACK 997 AUDIO
    TITLE "0:"
    INDEX 01 20:30:24
  TRACK 998 AUDIO
    TITLE "48:cjc160_4457"
    INDEX 01 20:30:59
  TRACK 999 AUDIO
    TITLE "0:"
    INDEX 01 20:32:50
  TRACK 1000 AUDIO
    TITLE "49:cjc160_4458"
    INDEX 01 20:33:13
  TRACK 1001 AUDIO
    TITLE "0:"
    INDEX 01 20:34:61
  TRACK 1002 AUDIO
    TITLE "48:cjc160_4459"
    INDEX 01 20:35:23
  TRACK 1003 AUDIO
    TITLE "0:"
    INDEX 01 20:37:46
  TRACK 1004 AUDIO
    TITLE "49:cjc160_4460"
    INDEX 01 20:38:08
  TRACK 1005 AUDIO
    TITLE "0:"
    INDEX 01 20:39:41
  TRACK 1006 AUDIO
    TITLE "48:cjc160_4461"
    INDEX 01 20:40:15
  TRACK 1007 AUDIO
    TITLE "0:"
    INDEX 01 20:42:10
  TRACK 1008 AUDIO
    TITLE "49:cjc160_4462"
    INDEX 01 20:42:47
  TRACK 1009 AUDIO
    TITLE "0:"
    INDEX 01 20:44:16
  TRACK 1010 AUDIO
    TITLE "46:cjc160_4463"
    INDEX 01 20:45:18
  TRACK 1011 AUDIO
    TITLE "0:"
    INDEX 01 20:46:35
  TRACK 1012 AUDIO
    TITLE "47:cjc160_4464"
    INDEX 01 20:46:68
  TRACK 1013 AUDIO
    TITLE "0:"
    INDEX 01 20:49:72
  TRACK 1014 AUDIO
    TITLE "48:cjc160_4465"
    INDEX 01 20:50:37
  TRACK 1015 AUDIO
    TITLE "0:"
    INDEX 01 20:52:32
  TRACK 1016 AUDIO
    TITLE "49:cjc160_4466"
    INDEX 01 20:52:71
  TRACK 1017 AUDIO
    TITLE "0:"
    INDEX 01 20:54:42
  TRACK 1018 AUDIO
    TITLE "48:cjc160_4467"
    INDEX 01 20:55:01
  TRACK 1019 AUDIO
    TITLE "0:"
    INDEX 01 20:56:73
  TRACK 1020 AUDIO
    TITLE "49:cjc160_4468"
    INDEX 01 20:57:31
  TRACK 1021 AUDIO
    TITLE "0:"
    INDEX 01 20:59:08
  TRACK 1022 AUDIO
    TITLE "48:cjc160_4469"
    INDEX 01 20:59:45
  TRACK 1023 AUDIO
    TITLE "0:"
    INDEX 01 21:01:29
  TRACK 1024 AUDIO
    TITLE "49:cjc160_4470"
    INDEX 01 21:01:66
  TRACK 1025 AUDIO
    TITLE "0:"
    INDEX 01 21:03:49
  TRACK 1026 AUDIO
    TITLE "46:cjc160_4471"
    INDEX 01 21:04:49
  TRACK 1027 AUDIO
    TITLE "0:"
    INDEX 01 21:05:62
  TRACK 1028 AUDIO
    TITLE "47:cjc160_4472"
    INDEX 01 21:06:24
  TRACK 1029 AUDIO
    TITLE "0:"
    INDEX 01 21:09:01
  TRACK 1030 AUDIO
    TITLE "48:cjc160_4473"
    INDEX 01 21:09:38
  TRACK 1031 AUDIO
    TITLE "0:"
    INDEX 01 21:10:75
  TRACK 1032 AUDIO
    TITLE "49:cjc160_4474"
    INDEX 01 21:11:37
  TRACK 1033 AUDIO
    TITLE "0:"
    INDEX 01 21:13:12
  TRACK 1034 AUDIO
    TITLE "48:cjc160_4475"
    INDEX 01 21:13:51
  TRACK 1035 AUDIO
    TITLE "0:"
    INDEX 01 21:15:15
  TRACK 1036 AUDIO
    TITLE "49:cjc160_4476"
    INDEX 01 21:15:52
  TRACK 1037 AUDIO
    TITLE "0:"
    INDEX 01 21:17:43
  TRACK 1038 AUDIO
    TITLE "48:cjc160_4477"
    INDEX 01 21:18:06
  TRACK 1039 AUDIO
    TITLE "0:"
    INDEX 01 21:19:46
  TRACK 1040 AUDIO
    TITLE "49:cjc160_4478"
    INDEX 01 21:20:10
  TRACK 1041 AUDIO
    TITLE "0:"
    INDEX 01 21:21:53
  TRACK 1042 AUDIO
    TITLE "46:cjc160_4479"
    INDEX 01 21:22:52
  TRACK 1043 AUDIO
    TITLE "0:"
    INDEX 01 21:23:63
  TRACK 1044 AUDIO
    TITLE "47:cjc160_4480"
    INDEX 01 21:24:28
  TRACK 1045 AUDIO
    TITLE "0:"
    INDEX 01 21:26:52
  TRACK 1046 AUDIO
    TITLE "48:cjc160_4481"
    INDEX 01 21:27:14
  TRACK 1047 AUDIO
    TITLE "0:"
    INDEX 01 21:28:51
  TRACK 1048 AUDIO
    TITLE "49:cjc160_4482"
    INDEX 01 21:29:15
  TRACK 1049 AUDIO
    TITLE "0:"
    INDEX 01 21:30:69
  TRACK 1050 AUDIO
    TITLE "48:cjc160_4483"
    INDEX 01 21:31:34
  TRACK 1051 AUDIO
    TITLE "0:"
    INDEX 01 21:33:13
  TRACK 1052 AUDIO
    TITLE "49:cjc160_4484"
    INDEX 01 21:33:50
  TRACK 1053 AUDIO
    TITLE "0:"
    INDEX 01 21:35:24
  TRACK 1054 AUDIO
    TITLE "48:cjc160_4485"
    INDEX 01 21:35:61
  TRACK 1055 AUDIO
    TITLE "0:"
    INDEX 01 21:37:22
  TRACK 1056 AUDIO
    TITLE "49:cjc160_4486"
    INDEX 01 21:37:60
  TRACK 1057 AUDIO
    TITLE "0:"
    INDEX 01 21:39:37
  TRACK 1058 AUDIO
    TITLE "46:cjc160_4487"
    INDEX 01 21:40:38
  TRACK 1059 AUDIO
    TITLE "0:"
    INDEX 01 21:41:52
  TRACK 1060 AUDIO
    TITLE "47:cjc160_4488"
    INDEX 01 21:42:10
  TRACK 1061 AUDIO
    TITLE "0:"
    INDEX 01 21:44:75
  TRACK 1062 AUDIO
    TITLE "48:cjc160_4489"
    INDEX 01 21:45:36
  TRACK 1063 AUDIO
    TITLE "0:"
    INDEX 01 21:47:31
  TRACK 1064 AUDIO
    TITLE "49:cjc160_4490"
    INDEX 01 21:47:68
  TRACK 1065 AUDIO
    TITLE "0:"
    INDEX 01 21:49:49
  TRACK 1066 AUDIO
    TITLE "48:cjc160_4491"
    INDEX 01 21:50:15
  TRACK 1067 AUDIO
    TITLE "0:"
    INDEX 01 21:52:20
  TRACK 1068 AUDIO
    TITLE "49:cjc160_4492"
    INDEX 01 21:52:57
  TRACK 1069 AUDIO
    TITLE "0:"
    INDEX 01 21:54:25
  TRACK 1070 AUDIO
    TITLE "48:cjc160_4493"
    INDEX 01 21:54:62
  TRACK 1071 AUDIO
    TITLE "0:"
    INDEX 01 21:56:55
  TRACK 1072 AUDIO
    TITLE "49:cjc160_4494"
    INDEX 01 21:57:17
  TRACK 1073 AUDIO
    TITLE "0:"
    INDEX 01 21:58:48
  TRACK 1074 AUDIO
    TITLE "46:cjc160_4495"
    INDEX 01 21:59:63
  TRACK 1075 AUDIO
    TITLE "0:"
    INDEX 01 22:00:74
  TRACK 1076 AUDIO
    TITLE "47:cjc160_4496"
    INDEX 01 22:01:37
  TRACK 1077 AUDIO
    TITLE "0:"
    INDEX 01 22:05:58
  TRACK 1078 AUDIO
    TITLE "48:cjc160_4497"
    INDEX 01 22:06:20
  TRACK 1079 AUDIO
    TITLE "0:"
    INDEX 01 22:07:65
  TRACK 1080 AUDIO
    TITLE "49:cjc160_4498"
    INDEX 01 22:08:29
  TRACK 1081 AUDIO
    TITLE "0:"
    INDEX 01 22:10:04
  TRACK 1082 AUDIO
    TITLE "48:cjc160_4499"
    INDEX 01 22:10:42
  TRACK 1083 AUDIO
    TITLE "0:"
    INDEX 01 22:12:25
  TRACK 1084 AUDIO
    TITLE "49:cjc160_4500"
    INDEX 01 22:12:64
  TRACK 1085 AUDIO
    TITLE "0:"
    INDEX 01 22:14:47
  TRACK 1086 AUDIO
    TITLE "48:cjc160_4501"
    INDEX 01 22:15:09
  TRACK 1087 AUDIO
    TITLE "0:"
    INDEX 01 22:16:62
  TRACK 1088 AUDIO
    TITLE "49:cjc160_4502"
    INDEX 01 22:17:26
  TRACK 1089 AUDIO
    TITLE "0:"
    INDEX 01 22:19:07
  TRACK 1090 AUDIO
    TITLE "46:cjc160_4503"
    INDEX 01 22:20:13
  TRACK 1091 AUDIO
    TITLE "0:"
    INDEX 01 22:21:30
  TRACK 1092 AUDIO
    TITLE "47:cjc160_4504"
    INDEX 01 22:21:67
  TRACK 1093 AUDIO
    TITLE "0:"
    INDEX 01 22:25:08
  TRACK 1094 AUDIO
    TITLE "48:cjc160_4505"
    INDEX 01 22:25:45
  TRACK 1095 AUDIO
    TITLE "0:"
    INDEX 01 22:27:28
  TRACK 1096 AUDIO
    TITLE "49:cjc160_4506"
    INDEX 01 22:27:65
  TRACK 1097 AUDIO
    TITLE "0:"
    INDEX 01 22:29:47
  TRACK 1098 AUDIO
    TITLE "48:cjc160_4507"
    INDEX 01 22:30:11
  TRACK 1099 AUDIO
    TITLE "0:"
    INDEX 01 22:32:22
  TRACK 1100 AUDIO
    TITLE "49:cjc160_4508"
    INDEX 01 22:32:57
  TRACK 1101 AUDIO
    TITLE "0:"
    INDEX 01 22:35:14
  TRACK 1102 AUDIO
    TITLE "48:cjc160_4509"
    INDEX 01 22:35:51
  TRACK 1103 AUDIO
    TITLE "0:"
    INDEX 01 22:37:66
  TRACK 1104 AUDIO
    TITLE "49:cjc160_4510"
    INDEX 01 22:38:28
  TRACK 1105 AUDIO
    TITLE "0:"
    INDEX 01 22:40:50
